<svg width="512" height="512" viewBox="0 0 512 512" fill="none" xmlns="http://www.w3.org/2000/svg">
<path d="M409.494 0H102.506C88.852 0.0197511 75.7627 5.44734 66.1077 15.0929C56.4527 24.7385 51.0198 37.8151 51 51.456V460.544C51.0198 474.185 56.4527 487.261 66.1077 496.907C75.7627 506.553 88.852 511.98 102.506 512H409.494C423.148 511.98 436.237 506.553 445.892 496.907C455.547 487.261 460.98 474.185 461 460.544V51.456C460.98 37.8151 455.547 24.7385 445.892 15.0929C436.237 5.44734 423.148 0.0197511 409.494 0V0ZM123.924 107.403C127.072 104.149 131.385 102.277 135.914 102.199C140.443 102.121 144.818 103.843 148.076 106.987C148.218 107.115 148.357 107.253 148.492 107.403L170.583 129.472L209.758 90.336C212.938 87.2308 217.204 85.4867 221.651 85.4742C226.097 85.4617 230.374 87.1818 233.571 90.2691C236.769 93.3565 238.635 97.5676 238.774 102.008C238.913 106.448 237.313 110.767 234.315 114.048L233.888 114.464L182.638 165.664C179.434 168.862 175.091 170.659 170.562 170.659C166.033 170.659 161.69 168.862 158.486 165.664L124.32 131.531C121.065 128.383 119.196 124.073 119.121 119.548C119.047 115.024 120.775 110.655 123.924 107.403ZM124.757 235.403C127.942 232.33 132.197 230.612 136.625 230.612C141.053 230.612 145.307 232.33 148.492 235.403L170.583 257.472L209.758 218.336C212.987 215.271 217.288 213.587 221.743 213.644C226.197 213.701 230.454 215.494 233.604 218.641C236.754 221.788 238.549 226.04 238.606 230.49C238.663 234.941 236.978 239.237 233.909 242.464L182.659 293.664C179.456 296.862 175.112 298.659 170.583 298.659C166.054 298.659 161.711 296.862 158.508 293.664L124.341 259.531C121.194 256.276 119.47 251.905 119.548 247.381C119.626 242.856 121.5 238.547 124.757 235.403ZM227.674 463.403L219.698 445.195H164.177L156.233 463.403H129.733L177.993 354.507H205.871L254.142 463.403H227.674ZM296.573 433.845C301.499 439.029 309.414 441.621 320.319 441.621C328.725 441.621 335.317 440.117 340.093 437.109C344.869 434.101 348.136 429.383 349.894 422.955H375.583C373.612 437.582 368.188 448.249 359.311 454.955C350.435 461.66 337.434 465.003 320.308 464.981C300.684 464.981 286.448 460.548 277.6 451.68C268.752 442.812 264.317 428.59 264.296 409.013C264.296 389.415 268.731 375.193 277.6 366.347C286.469 357.5 300.705 353.067 320.308 353.045C337.434 353.045 350.435 356.391 359.311 363.083C368.188 369.774 373.612 380.441 375.583 395.083H349.894C348.136 388.683 344.869 383.964 340.093 380.928C335.317 377.892 328.725 376.388 320.319 376.416C309.414 376.416 301.499 379.008 296.573 384.192C291.647 389.376 289.181 397.671 289.174 409.077C289.174 420.405 291.64 428.661 296.573 433.845ZM375.583 298.667H290.167C285.636 298.667 281.291 296.869 278.087 293.668C274.883 290.467 273.083 286.126 273.083 281.6C273.083 277.074 274.883 272.733 278.087 269.532C281.291 266.331 285.636 264.533 290.167 264.533H375.583C380.114 264.533 384.459 266.331 387.663 269.532C390.867 272.733 392.667 277.074 392.667 281.6C392.667 286.126 390.867 290.467 387.663 293.668C384.459 296.869 380.114 298.667 375.583 298.667ZM375.583 247.467H290.167C285.636 247.467 281.291 245.669 278.087 242.468C274.883 239.267 273.083 234.926 273.083 230.4C273.083 225.874 274.883 221.533 278.087 218.332C281.291 215.131 285.636 213.333 290.167 213.333H375.583C380.114 213.333 384.459 215.131 387.663 218.332C390.867 221.533 392.667 225.874 392.667 230.4C392.667 234.926 390.867 239.267 387.663 242.468C384.459 245.669 380.114 247.467 375.583 247.467ZM375.583 170.667H290.167C285.636 170.667 281.291 168.869 278.087 165.668C274.883 162.467 273.083 158.126 273.083 153.6C273.083 149.074 274.883 144.733 278.087 141.532C281.291 138.331 285.636 136.533 290.167 136.533H375.583C380.114 136.533 384.459 138.331 387.663 141.532C390.867 144.733 392.667 149.074 392.667 153.6C392.667 158.126 390.867 162.467 387.663 165.668C384.459 168.869 380.114 170.667 375.583 170.667ZM375.583 119.467H290.167C285.636 119.467 281.291 117.669 278.087 114.468C274.883 111.267 273.083 106.926 273.083 102.4C273.083 97.8736 274.883 93.5327 278.087 90.3321C281.291 87.1314 285.636 85.3333 290.167 85.3333H375.583C380.114 85.3333 384.459 87.1314 387.663 90.3321C390.867 93.5327 392.667 97.8736 392.667 102.4C392.667 106.926 390.867 111.267 387.663 114.468C384.459 117.669 380.114 119.467 375.583 119.467Z" fill="white"/>
<path d="M174.256 421.867H209.757L192.012 380.949L174.256 421.867Z" fill="white"/>
</svg>
