<svg width="20" height="20" viewBox="0 0 20 20" fill="none" xmlns="http://www.w3.org/2000/svg">
<path d="M14.8705 14.3868C13.3208 14.7291 11.6845 14.9024 10 14.9024C8.31551 14.9024 6.67918 14.729 5.12945 14.3868C5.30223 12.9844 6.06859 11.7304 7.24309 10.9332C8.04465 11.5023 9.01113 11.8126 10 11.8126C10.9889 11.8126 11.9554 11.5024 12.7569 10.9332C13.9314 11.7305 14.6978 12.9844 14.8705 14.3868ZM20 10C20 15.514 15.514 20 10 20C4.48598 20 0 15.514 0 10C0 4.48599 4.48598 0 10 0C15.514 0 20 4.48599 20 10ZM7.1082 7.05205C7.1082 8.64662 8.40551 9.94393 10.0001 9.94393C11.5946 9.94393 12.892 8.64666 12.892 7.05205C12.892 5.45743 11.5946 4.16013 10.0001 4.16013C8.40551 4.16013 7.1082 5.45743 7.1082 7.05205ZM15.8394 14.7314C15.7517 12.7531 14.6791 10.969 12.9702 9.95889C12.8001 9.8583 12.5853 9.87522 12.4331 10.001C11.7509 10.5646 10.8868 10.8751 10.0001 10.8751C9.11336 10.8751 8.24926 10.5647 7.56695 10.001C7.41477 9.87525 7.19992 9.85838 7.02992 9.95889C5.32098 10.969 4.24832 12.7531 4.16062 14.7314C4.1507 14.9555 4.30086 15.1552 4.51887 15.2078C6.2552 15.6272 8.0993 15.8399 10 15.8399C11.9007 15.8399 13.7448 15.6272 15.4811 15.2078C15.6991 15.1551 15.8493 14.9554 15.8394 14.7314ZM10.0001 9.00642C11.0777 9.00642 11.9545 8.1297 11.9545 7.05205C11.9545 5.97439 11.0777 5.09763 10.0001 5.09763C8.92242 5.09763 8.0457 5.97439 8.0457 7.05205C8.0457 8.1297 8.92242 9.00642 10.0001 9.00642Z" fill="white"/>
</svg>
