<svg width="512" height="512" viewBox="0 0 512 512" fill="none" xmlns="http://www.w3.org/2000/svg">
<path d="M377 242C302.559 242 242 302.559 242 377C242 451.441 302.559 512 377 512C451.441 512 512 451.441 512 377C512 302.559 451.441 242 377 242ZM437 392H377C368.711 392 362 385.289 362 377V317C362 308.711 368.711 302 377 302C385.289 302 392 308.711 392 317V362H437C445.289 362 452 368.711 452 377C452 385.289 445.289 392 437 392Z" fill="white"/>
<path d="M481 46C481 37.5977 474.402 31 466 31H391V76C391 84.3984 384.402 91 376 91C367.598 91 361 84.3984 361 76V31H301V76C301 84.3984 294.402 91 286 91C277.598 91 271 84.3984 271 76V31H211V76C211 84.3984 204.402 91 196 91C187.598 91 181 84.3984 181 76V31H121V76C121 84.3984 114.402 91 106 91C97.5977 91 91 84.3984 91 76V31H15C6.59766 31 0 37.5977 0 46V121H481V46Z" fill="white"/>
<path d="M226 301H229.602C235.078 290.359 241.258 280.145 248.82 271H226C217.711 271 211 264.289 211 256C211 247.711 217.711 241 226 241H256C262.145 241 267.391 244.707 269.711 249.992C298.449 225.715 335.52 211 376 211H346C337.711 211 331 204.289 331 196C331 187.711 337.711 181 346 181H376C384.289 181 391 187.711 391 196C391 204.289 384.289 211 376 211C415.855 211 452.453 225.211 481 248.82V151H0V436C0 444.289 6.71094 451 15 451H229.215C217.656 428.469 211 403.016 211 376C211 359.488 213.961 343.754 218.496 328.703C214.094 326.09 211 321.496 211 316C211 307.711 217.711 301 226 301ZM226 181H256C264.289 181 271 187.711 271 196C271 204.289 264.289 211 256 211H226C217.711 211 211 204.289 211 196C211 187.711 217.711 181 226 181ZM136 391H106C97.7109 391 91 384.289 91 376C91 367.711 97.7109 361 106 361H136C144.289 361 151 367.711 151 376C151 384.289 144.289 391 136 391ZM136 331H106C97.7109 331 91 324.289 91 316C91 307.711 97.7109 301 106 301H136C144.289 301 151 307.711 151 316C151 324.289 144.289 331 136 331ZM136 271H106C97.7109 271 91 264.289 91 256C91 247.711 97.7109 241 106 241H136C144.289 241 151 247.711 151 256C151 264.289 144.289 271 136 271ZM136 211H106C97.7109 211 91 204.289 91 196C91 187.711 97.7109 181 106 181H136C144.289 181 151 187.711 151 196C151 204.289 144.289 211 136 211Z" fill="white"/>
<path d="M121 15C121 6.59766 114.402 0 106 0C97.5977 0 91 6.59766 91 15V31H121V15Z" fill="white"/>
<path d="M211 15C211 6.59766 204.402 0 196 0C187.598 0 181 6.59766 181 15V31H211V15Z" fill="white"/>
<path d="M301 15C301 6.59766 294.402 0 286 0C277.598 0 271 6.59766 271 15V31H301V15Z" fill="white"/>
<path d="M391 15C391 6.59766 384.402 0 376 0C367.598 0 361 6.59766 361 15V31H391V15Z" fill="white"/>
</svg>
