<svg width="30" height="30" viewBox="0 0 30 30" fill="none" xmlns="http://www.w3.org/2000/svg">
<path fill-rule="evenodd" clip-rule="evenodd" d="M0 15C0 6.71601 6.7157 0 15 0C23.2843 0 30 6.71601 30 15C30 23.284 23.2843 30 15 30C6.7157 30 0 23.284 0 15ZM20.2732 9.91335C20.2883 6.95939 17.9432 4.56951 15.0215 4.56153C12.1059 4.55356 9.73688 6.90997 9.72061 9.83325C9.70343 12.7249 12.0712 15.1185 14.9583 15.1283C17.8751 15.1381 20.2585 12.7992 20.2732 9.91335ZM18.6519 18.6823C19.5155 18.3474 20.2932 17.8674 20.9392 17.2042C21.3606 16.7712 21.3646 16.2273 21.0224 15.6697C20.7235 15.1817 20.203 14.9764 19.6456 15.12C19.3587 15.1933 19.111 15.3388 18.8796 15.5156C16.5422 17.0879 13.3436 17.044 11.0154 15.4441C10.9013 15.3655 10.7822 15.2913 10.657 15.2326C10.0109 14.9279 9.38977 15.0697 9.01933 15.6C8.58691 16.2193 8.64184 16.8212 9.18905 17.3463C9.30341 17.4567 9.43005 17.5546 9.55658 17.6524C9.58626 17.6753 9.61592 17.6982 9.64542 17.7213C10.8948 18.6982 12.3542 19.0966 13.9725 19.2657C13.9316 19.3095 13.896 19.3484 13.8636 19.3838C13.8051 19.4476 13.7568 19.5004 13.7061 19.5511C13.5368 19.7209 13.3674 19.8908 13.1981 20.0607C12.181 21.0812 11.1636 22.1018 10.1435 23.1198C9.89739 23.3647 9.72123 23.6391 9.70343 23.9969C9.67826 24.5276 10.0066 25.0551 10.5232 25.305C11.0093 25.5413 11.5077 25.4664 11.9266 25.0533C12.8593 24.1335 13.7868 23.2088 14.6992 22.2691C14.9279 22.034 15.0519 21.9824 15.3112 22.2531C15.9112 22.8813 16.5278 23.4943 17.1444 24.1073C17.4405 24.4017 17.7367 24.6961 18.031 24.9922C18.2676 25.2307 18.5343 25.4004 18.8762 25.424C19.4161 25.4612 19.9663 25.1162 20.2116 24.5914C20.4362 24.1117 20.3512 23.5998 19.943 23.1867C19.2032 22.4383 18.4596 21.6936 17.7159 20.9487C17.2555 20.4877 16.7952 20.0266 16.3357 19.5646C16.2744 19.5033 16.2242 19.4485 16.1488 19.3661C16.1215 19.3363 16.0908 19.3028 16.0551 19.2641C16.9409 19.158 17.8355 18.9987 18.6519 18.6823ZM17.5819 9.84047C17.5872 11.2759 16.4464 12.4265 15.0141 12.4317C13.5771 12.4369 12.4235 11.302 12.4127 9.87177C12.4017 8.42287 13.5556 7.25909 15.0006 7.26062C16.4335 7.26185 17.5767 8.40446 17.5819 9.84047Z" fill="#307829"/>
</svg>
