<svg width="20" height="20" viewBox="0 0 20 20" fill="none" xmlns="http://www.w3.org/2000/svg">
<g clip-path="url(#clip0_5263_35414)">
<path d="M12.7446 4.03928H0V19.9998H3.55107V14.8105H10.3486L13.4492 20.002H17.4171L13.9968 14.7953C15.0609 14.6015 15.8259 14.1467 16.2919 13.4307C16.7592 12.7127 16.9928 11.5629 16.9928 10.0312V8.82505C17.0074 8.09249 16.9287 7.36145 16.7592 6.65561C16.608 6.10534 16.3459 5.60483 15.9948 5.19559C15.6197 4.79305 15.1731 4.49091 14.6865 4.31046C14.0529 4.11766 13.3995 4.02642 12.7446 4.03928V4.03928ZM12.1652 11.2895H3.54734V7.55593H12.1652C12.653 7.55593 12.9932 7.65138 13.1633 7.8206C13.3333 7.98981 13.4399 8.29787 13.4399 8.75345V10.0942C13.4399 10.5714 13.3333 10.8838 13.1633 11.0509C12.9932 11.2179 12.6586 11.2895 12.1652 11.2895Z" fill="white"/>
<path d="M18.1777 4.24145C18.5396 4.24274 18.8936 4.11934 19.195 3.88689C19.4963 3.65445 19.7315 3.32341 19.8706 2.9357C20.0098 2.548 20.0467 2.12108 19.9766 1.70902C19.9066 1.29697 19.7328 0.91831 19.4772 0.621019C19.2216 0.323728 18.8957 0.121179 18.5409 0.0390288C18.186 -0.0431214 17.8181 -0.00117645 17.4839 0.15955C17.1496 0.320277 16.8639 0.592554 16.663 0.941892C16.4621 1.29123 16.3551 1.70191 16.3555 2.12191C16.3555 2.6833 16.5473 3.22175 16.889 3.61912C17.2306 4.01648 17.6941 4.2403 18.1777 4.24145V4.24145Z" fill="white"/>
</g>
<defs>
<clipPath id="clip0_5263_35414">
<rect width="20" height="20" fill="white"/>
</clipPath>
</defs>
</svg>
