<svg width="30" height="30" viewBox="0 0 30 30" fill="none" xmlns="http://www.w3.org/2000/svg">
<path fill-rule="evenodd" clip-rule="evenodd" d="M15 30C23.2843 30 30 23.2843 30 15C30 6.71573 23.2843 0 15 0C6.71573 0 0 6.71573 0 15C0 23.2843 6.71573 30 15 30ZM21.9344 8.06489L7.745 13.3669C6.77247 13.7353 6.78964 14.2571 7.57821 14.4995L11.2108 15.5977L19.6374 10.4562C20.0286 10.2042 20.3916 10.3469 20.0948 10.6L13.276 16.57L13.0148 20.1985C13.395 20.1985 13.5606 20.0381 13.7568 19.8479L15.5314 18.1911L19.2106 20.8189C19.8814 21.1874 20.3609 20.9972 20.54 20.2151L22.956 9.18448L22.9548 9.18567C23.1682 8.22059 22.593 7.83432 21.9344 8.06489Z" fill="#307829"/>
</svg>
