<svg width="22" height="21" viewBox="0 0 22 21" fill="none" xmlns="http://www.w3.org/2000/svg">
<path d="M3.9541 0C2.03497 0 0.454102 1.58087 0.454102 3.5V17.5C0.454102 19.4191 2.03497 21 3.9541 21H17.9541C19.8732 21 21.4541 19.4191 21.4541 17.5V3.5C21.4541 1.58087 19.8732 0 17.9541 0H3.9541ZM3.9541 2.33333H17.9541C18.6133 2.33333 19.1208 2.8408 19.1208 3.5V17.5C19.1208 18.1592 18.6133 18.6667 17.9541 18.6667H3.9541C3.2949 18.6667 2.78743 18.1592 2.78743 17.5V3.5C2.78743 2.8408 3.2949 2.33333 3.9541 2.33333ZM10.9541 4.66667V12.8333C10.9541 13.4925 10.4466 14 9.78743 14C9.12823 14 8.62077 13.4925 8.62077 12.8333C8.62077 12.1741 9.12823 11.6667 9.78743 11.6667V9.33333C7.8683 9.33333 6.28743 10.9142 6.28743 12.8333C6.28743 14.7525 7.8683 16.3333 9.78743 16.3333C11.7066 16.3333 13.2874 14.7525 13.2874 12.8333V8.43783C14.0063 8.9499 14.7564 9.33333 15.6208 9.33333V7C15.5655 7 14.7606 6.74443 14.1989 6.25488C13.6372 5.76534 13.2874 5.15082 13.2874 4.66667H10.9541Z" fill="white"/>
</svg>
