<svg width="30" height="30" viewBox="0 0 30 30" fill="none" xmlns="http://www.w3.org/2000/svg">
<path fill-rule="evenodd" clip-rule="evenodd" d="M15 0C6.7175 0 0 6.715 0 15C0 23.2838 6.7175 30 15 30C23.2838 30 30 23.2838 30 15C30 6.715 23.2838 0 15 0ZM21.775 8.8225C21.3162 8.4 19.4625 7.055 15.335 7.03625C15.335 7.03625 10.4675 6.7425 8.095 8.92C6.775 10.2413 6.31 12.1725 6.26125 14.57C6.2125 16.9675 6.14875 21.4575 10.4775 22.6763L10.4813 22.6775L10.4788 24.535C10.4788 24.535 10.4525 25.2875 10.9475 25.4412C11.5463 25.6275 11.8975 25.055 12.47 24.4388C12.7837 24.1013 13.2175 23.6038 13.545 23.2238C16.505 23.4713 18.7825 22.9037 19.0413 22.8187C19.6388 22.625 23.0225 22.1912 23.5725 17.7013C24.14 13.0712 23.2975 10.1425 21.775 8.8225ZM22.2762 17.3662C21.8112 21.1162 19.0688 21.3538 18.5625 21.515C18.3475 21.585 16.3462 22.0825 13.8312 21.9175C13.8312 21.9175 11.9575 24.1787 11.3725 24.7663C11.2812 24.8587 11.1737 24.8962 11.1012 24.8787C11.0012 24.8538 10.9738 24.735 10.975 24.56L10.99 21.4725C7.32875 20.455 7.5425 16.6313 7.58375 14.63C7.625 12.6288 8.00125 10.9888 9.1175 9.885C11.125 8.0675 15.2587 8.33875 15.2587 8.33875C18.7512 8.355 20.4237 9.40625 20.8113 9.75875C22.1 10.8612 22.7562 13.5 22.2762 17.3662ZM15.6862 17.5925C15.6862 17.5925 16.0138 17.6213 16.19 17.4025L16.535 16.9688C16.7 16.7537 17.1025 16.6163 17.495 16.835C18.015 17.1287 18.6875 17.59 19.1475 18.02C19.4012 18.2338 19.46 18.5487 19.2875 18.8812L19.285 18.8888C19.1075 19.2025 18.87 19.4963 18.5687 19.7712L18.5625 19.7763C18.2238 20.0588 17.835 20.2225 17.4188 20.0875L17.4112 20.0763C16.6637 19.865 14.8713 18.95 13.7288 18.0387C11.8587 16.5637 10.53 14.1313 10.1625 12.8275L10.1513 12.82C10.0163 12.4025 10.1812 12.0125 10.4625 11.6762L10.4675 11.67C10.7412 11.3688 11.0363 11.1313 11.35 10.9525L11.3562 10.9513C11.6888 10.7787 12.0037 10.8375 12.2188 11.0913C12.5012 11.3825 13.0312 12.0837 13.4025 12.7437C13.6213 13.1362 13.485 13.5375 13.27 13.7038L12.8363 14.0475C12.6175 14.225 12.6462 14.5525 12.6462 14.5525C12.6462 14.5525 13.2875 16.98 15.6862 17.5925ZM19.46 15.58C19.5887 15.5787 19.6925 15.4738 19.6925 15.345C19.68 13.8088 19.21 12.5763 18.295 11.6825C17.3813 10.7925 16.23 10.3362 14.8763 10.3263H14.8738C14.7463 10.3263 14.6412 10.43 14.64 10.5575C14.64 10.6862 14.7437 10.7925 14.8725 10.7925C16.1025 10.8012 17.1437 11.2138 17.9688 12.0175C18.7913 12.82 19.215 13.9412 19.225 15.3488C19.2262 15.4763 19.33 15.58 19.4587 15.58H19.46ZM18.2325 15.1H18.2275C18.0975 15.0975 17.9963 14.9913 17.9988 14.8612C18.0175 14.0638 17.7887 13.4175 17.3025 12.8875C16.8175 12.3575 16.1525 12.0675 15.2688 12.0025C15.14 11.9938 15.0425 11.8812 15.0525 11.7537C15.0625 11.625 15.1737 11.5287 15.3025 11.5375C16.2975 11.61 17.0863 11.9587 17.6462 12.5712C18.21 13.1875 18.4862 13.9612 18.465 14.8725C18.4625 15 18.3588 15.1 18.2325 15.1ZM17.035 14.6987C16.9113 14.6987 16.8075 14.6025 16.8013 14.4775C16.7625 13.685 16.3888 13.2975 15.6275 13.2562C15.4987 13.2487 15.4 13.1388 15.4062 13.01C15.4137 12.8813 15.5238 12.7825 15.6525 12.79C16.6575 12.8438 17.2162 13.42 17.2675 14.4537C17.2738 14.5825 17.175 14.6925 17.0462 14.6987H17.035Z" fill="#307829"/>
</svg>
