<svg width="30" height="30" viewBox="0 0 30 30" fill="none" xmlns="http://www.w3.org/2000/svg">
<path d="M15 0C6.71625 0 0 6.71625 0 15C0 23.2838 6.71625 30 15 30C23.2838 30 30 23.2838 30 15C30 6.71625 23.2838 0 15 0ZM22.93 20.2038H20.5962C19.2775 20.2038 19.0562 19.4525 17.9688 18.3675C16.9875 17.3862 16.4438 18.1388 16.4663 19.5362C16.4738 19.9075 16.29 20.2038 15.8475 20.2038C14.4663 20.2038 12.48 20.3988 10.4675 18.2288C8.40875 16.005 6.25 11.5437 6.25 11.105C6.25 10.845 6.465 10.7288 6.82375 10.7288H9.19625C9.825 10.7288 9.8775 11.04 10.0538 11.4388C10.7838 13.1025 12.53 16.4412 12.9963 14.5775C13.2638 13.5075 13.3725 11.0288 12.2275 10.815C11.5775 10.695 12.7225 10 14.38 10C14.7925 10 15.24 10.0437 15.6975 10.15C16.5387 10.345 16.5425 10.7225 16.53 11.2725C16.4875 13.355 16.2362 14.755 16.785 15.1087C17.3088 15.4475 18.6862 13.2312 19.415 11.52C19.6137 11.0475 19.6537 10.73 20.2188 10.73H23.1213C24.6412 10.73 22.9225 12.915 21.6088 14.62C20.55 15.9937 20.6062 16.02 21.8375 17.1625C22.7137 17.9762 23.75 19.0875 23.75 19.7162C23.75 20.0138 23.5175 20.2038 22.93 20.2038Z" fill="#307829"/>
</svg>
