<svg width="30" height="30" viewBox="0 0 21 21" fill="none" xmlns="http://www.w3.org/2000/svg">
<path fill-rule="evenodd" clip-rule="evenodd" d="M21 10.5C21 16.299 16.299 21 10.5 21C4.70101 21 0 16.299 0 10.5C0 4.70101 4.70101 0 10.5 0C16.299 0 21 4.70101 21 10.5ZM9.09274 9.09519C10.0802 8.10575 10.26 6.625 10.2932 3.98779L10.6839 3.98682C10.7122 6.62305 10.8968 8.10574 11.8843 9.09421C12.8718 10.0827 14.3496 10.2624 16.9868 10.2956V10.6863C14.3525 10.7156 12.8727 10.8983 11.8843 11.8877C10.8958 12.8771 10.7161 14.3579 10.6839 16.9951H10.2932C10.256 14.3579 10.0812 12.8771 9.09274 11.8887C8.10428 10.9002 6.62744 10.7205 3.99023 10.6873V10.2966C6.62451 10.2673 8.10526 10.0846 9.09274 9.09519Z" fill="#307829"/>
</svg>
