<svg width="212" height="41" viewBox="0 0 212 41" fill="none" xmlns="http://www.w3.org/2000/svg">
<path d="M31.6175 36.2723C31.734 36.3485 31.8533 36.3997 31.9768 36.4288C32.1002 36.4551 32.2401 36.4689 32.3992 36.4689C32.8312 36.4689 33.196 36.3415 33.4949 36.0853C33.7925 35.8291 34.0449 35.4026 34.2506 34.807L36.3694 28.658H35.0734L33.7774 32.8959L32.3169 28.658H30.8975L33.0259 34.1007C32.9299 34.537 32.8202 34.8403 32.6968 35.0106C32.5733 35.1796 32.4266 35.2641 32.2552 35.2641C32.1592 35.2641 32.0577 35.2502 31.9507 35.2225C31.8451 35.1948 31.734 35.1463 31.6175 35.0771V36.2723ZM38.7145 28.658H37.3472V34.1007H38.7145V31.8987H40.8553V34.1007H42.2226V28.658H40.8553V30.7146H38.7145V28.658ZM45.0834 28.658H43.7147V34.1007H44.7638L47.2845 30.7354V34.1007H48.6518V28.658H47.6342L45.0834 32.1161V28.658ZM50.1645 28.658V34.1007H52.9937C53.5971 34.1007 54.0703 33.9802 54.4131 33.7365C54.756 33.4955 54.9274 33.1244 54.9274 32.6258C54.9274 32.2519 54.8369 31.9555 54.6559 31.7381C54.4735 31.5193 54.2239 31.3655 53.9098 31.2755C54.1909 31.1578 54.3925 30.9791 54.516 30.7409C54.6394 30.5013 54.7011 30.2645 54.7011 30.0291C54.7011 29.8421 54.6696 29.6648 54.6037 29.4987C54.5379 29.3325 54.446 29.1871 54.3253 29.0624C54.206 28.9378 54.0634 28.8394 53.8988 28.766C53.7343 28.694 53.5519 28.658 53.3544 28.658H50.1645ZM51.5331 30.932V29.6648H52.7468C52.9457 29.6648 53.0952 29.7258 53.1939 29.8463C53.294 29.9681 53.3434 30.1149 53.3434 30.2881C53.3434 30.4958 53.2844 30.6551 53.1679 30.7659C53.0513 30.8766 52.8977 30.932 52.7057 30.932H51.5331ZM51.5331 33.0939V31.7422H52.9018C53.0993 31.7422 53.257 31.8073 53.375 31.9347C53.4902 32.0635 53.5491 32.2242 53.5491 32.4181C53.5491 32.605 53.4888 32.7643 53.3695 32.8959C53.2488 33.0274 53.0897 33.0939 52.8908 33.0939H51.5331ZM60.1278 33.8044C60.5639 33.5385 60.8807 33.1978 61.0796 32.7823L59.896 32.4485C59.8069 32.6701 59.6409 32.8488 59.3968 32.9845C59.1541 33.1188 58.8949 33.1867 58.6206 33.1867C58.4423 33.1867 58.2709 33.1548 58.1063 33.0939C57.9418 33.0316 57.7937 32.9402 57.6634 32.8238C57.5331 32.7061 57.4275 32.5635 57.3452 32.3973C57.2629 32.2311 57.2108 32.0414 57.1902 31.8253H61.3566C61.3703 31.7699 61.3799 31.7007 61.3826 31.6176C61.3868 31.5345 61.3881 31.4486 61.3881 31.3586C61.3881 30.9916 61.325 30.6384 61.1975 30.2991C61.0713 29.9598 60.8862 29.6607 60.6421 29.4059C60.398 29.1497 60.1031 28.9447 59.7575 28.7924C59.4106 28.64 59.0183 28.5638 58.5795 28.5638C58.1406 28.5638 57.7443 28.64 57.3918 28.7924C57.038 28.9447 56.7377 29.151 56.4908 29.41C56.244 29.6704 56.0561 29.9709 55.9258 30.3144C55.7955 30.6564 55.7297 31.0221 55.7297 31.4098C55.7297 31.7838 55.7969 32.1411 55.9313 32.4804C56.0643 32.8197 56.2549 33.1174 56.5018 33.3737C56.7486 33.6299 57.0462 33.8321 57.3959 33.9816C57.747 34.1298 58.1379 34.2046 58.5699 34.2046C59.1719 34.2046 59.6917 34.0717 60.1278 33.8044ZM57.171 30.9224C57.1847 30.7215 57.23 30.5373 57.3095 30.3712C57.3877 30.205 57.4892 30.0637 57.6126 29.946C57.7361 29.8283 57.8787 29.7369 58.0391 29.6704C58.201 29.6039 58.3738 29.5707 58.5589 29.5707C58.936 29.5707 59.257 29.6939 59.5203 29.9404C59.7849 30.1856 59.9344 30.5138 59.9687 30.9224H57.171ZM66.6352 33.9872C66.9232 33.8404 67.1714 33.6409 67.3812 33.3833C67.5897 33.1285 67.7529 32.8266 67.8694 32.4804C67.986 32.1342 68.0436 31.763 68.0436 31.3683C68.0436 30.9874 67.9805 30.626 67.853 30.2839C67.7268 29.9404 67.5513 29.6427 67.3291 29.3893C67.1056 29.1372 66.8409 28.9364 66.5323 28.7868C66.2224 28.6386 65.8864 28.5638 65.5243 28.5638C65.1115 28.5638 64.7481 28.6552 64.4327 28.8394C64.1172 29.0222 63.8608 29.2743 63.6619 29.5928V28.658H62.4578V36.3138H63.8361V33.1451C64.0144 33.4706 64.2612 33.7282 64.5767 33.9193C64.8921 34.109 65.2624 34.2046 65.6875 34.2046C66.0304 34.2046 66.3472 34.1326 66.6352 33.9872ZM64.4025 32.7144C64.1488 32.5095 63.9595 32.2519 63.8361 31.9403V30.662C63.8841 30.5304 63.954 30.4099 64.0473 30.2991C64.1406 30.1883 64.2448 30.0914 64.3614 30.0083C64.4779 29.9252 64.6041 29.8601 64.7412 29.8158C64.8784 29.7701 65.0128 29.7479 65.1431 29.7479C65.3556 29.7479 65.5531 29.7895 65.7341 29.8726C65.9165 29.9557 66.0743 30.0706 66.2073 30.216C66.3417 30.3615 66.4459 30.5318 66.5213 30.7298C66.5968 30.9265 66.6352 31.1398 66.6352 31.3683C66.6352 31.583 66.5995 31.7907 66.5323 31.9915C66.4637 32.1923 66.3664 32.3696 66.2443 32.5219C66.1195 32.6743 65.9714 32.7961 65.7959 32.8862C65.6217 32.9762 65.4311 33.0205 65.2253 33.0205C64.9305 33.0205 64.6562 32.918 64.4025 32.7144ZM69.0365 32.4541C69.1709 32.7975 69.3602 33.0981 69.607 33.3584C69.8552 33.6174 70.1528 33.8238 70.5026 33.9761C70.8523 34.1284 71.2472 34.2046 71.6861 34.2046C72.2826 34.2046 72.7928 34.073 73.218 33.8099C73.6431 33.5468 73.9489 33.2075 74.1341 32.792L72.786 32.3765C72.7037 32.5566 72.5583 32.7089 72.3485 32.8335C72.14 32.9582 71.9124 33.0205 71.6655 33.0205C71.4735 33.0205 71.2911 32.9803 71.1197 32.9014C70.9483 32.8211 70.7988 32.7089 70.6726 32.5635C70.5451 32.4181 70.4436 32.2449 70.3695 32.0441C70.2927 31.8433 70.2557 31.6217 70.2557 31.3794C70.2557 31.137 70.2914 30.9154 70.364 30.7146C70.4354 30.5138 70.5355 30.3421 70.6616 30.1994C70.7892 30.0582 70.9387 29.9474 71.1087 29.867C71.2801 29.7881 71.4667 29.7479 71.6655 29.7479C71.8987 29.7479 72.1112 29.802 72.3032 29.9086C72.4952 30.0166 72.6488 30.1703 72.7654 30.3712L74.1135 29.9557C73.9078 29.5402 73.5978 29.2051 73.1823 28.9475C72.7668 28.6926 72.2648 28.5638 71.6751 28.5638C71.2363 28.5638 70.8413 28.64 70.4916 28.7924C70.1419 28.9447 69.8443 29.1497 69.5974 29.4059C69.3506 29.6607 69.1613 29.9598 69.031 30.2991C68.9007 30.6384 68.8363 30.9985 68.8363 31.3794C68.8363 31.7533 68.9035 32.112 69.0365 32.4541ZM76.5724 28.658H75.2038V34.1007H76.2529L78.7736 30.7354V34.1007H80.1422V28.658H79.1233L76.5724 32.1161V28.658ZM84.2263 29.8629H85.9022V28.658H81.1708V29.8629H82.8576V34.1007H84.2263V29.8629ZM90.7117 33.8044C91.1478 33.5385 91.4646 33.1978 91.6635 32.7823L90.48 32.4485C90.3908 32.6701 90.2249 32.8488 89.9821 32.9845C89.738 33.1188 89.4788 33.1867 89.2045 33.1867C89.0263 33.1867 88.8548 33.1548 88.6903 33.0939C88.5257 33.0316 88.3776 32.9402 88.2473 32.8238C88.117 32.7061 88.0114 32.5635 87.9291 32.3973C87.8468 32.2311 87.7947 32.0414 87.7755 31.8253H91.9419C91.9542 31.7699 91.9638 31.7007 91.9666 31.6176C91.9707 31.5345 91.9721 31.4486 91.9721 31.3586C91.9721 30.9916 91.909 30.6384 91.7814 30.2991C91.6553 29.9598 91.4687 29.6607 91.226 29.4059C90.9833 29.1497 90.6884 28.9447 90.3414 28.7924C89.9945 28.64 89.6023 28.5638 89.1634 28.5638C88.7245 28.5638 88.3282 28.64 87.9758 28.7924C87.6219 28.9447 87.3216 29.151 87.0747 29.41C86.8279 29.6704 86.64 29.9709 86.5097 30.3144C86.3794 30.6564 86.3136 31.0221 86.3136 31.4098C86.3136 31.7838 86.3808 32.1411 86.5152 32.4804C86.6482 32.8197 86.8389 33.1174 87.0857 33.3737C87.3326 33.6299 87.6302 33.8321 87.9812 33.9816C88.331 34.1298 88.7204 34.2046 89.1538 34.2046C89.7572 34.2046 90.2756 34.0717 90.7117 33.8044ZM87.7536 30.9224C87.7673 30.7215 87.8139 30.5373 87.8935 30.3712C87.9716 30.205 88.0731 30.0637 88.1965 29.946C88.32 29.8283 88.4626 29.7369 88.6231 29.6704C88.7849 29.6039 88.9577 29.5707 89.1428 29.5707C89.52 29.5707 89.8409 29.6939 90.1042 29.9404C90.3689 30.1856 90.5184 30.5138 90.5526 30.9224H87.7536ZM95.3979 29.8629H97.0751V28.658H92.3423V29.8629H94.0292V34.1007H95.3979V29.8629ZM100.604 31.5553C100.685 31.9084 100.794 32.263 100.932 32.6147C101.07 32.9679 101.232 33.3169 101.421 33.6589C101.609 34.0024 101.809 34.3334 102.023 34.6519L103.031 34.1423C102.661 33.4983 102.358 32.8751 102.121 32.2726C101.883 31.6702 101.765 31.0885 101.765 30.5277C101.765 30.1745 101.813 29.8047 101.909 29.4211C102.005 29.0361 102.121 28.6691 102.255 28.3201C102.388 27.9697 102.528 27.6512 102.676 27.3645C102.823 27.0764 102.952 26.8493 103.061 26.6831L102.012 26.2372C101.8 26.6042 101.601 26.9656 101.416 27.323C101.23 27.6789 101.067 28.0334 100.927 28.3866C100.786 28.7397 100.676 29.0915 100.598 29.4419C100.519 29.7909 100.479 30.1426 100.479 30.4958C100.479 30.849 100.52 31.2021 100.604 31.5553ZM109.049 26.7247V29.7064H105.737V26.7247H104.316V34.1007H105.737V30.9528H109.049V34.1007H110.459V26.7247H109.049ZM113.657 26.7247H112.248V34.1007H113.38L117.052 29.0416V34.1007H118.461V26.7247H117.382L113.657 31.8987V26.7247ZM122.042 34.0744C122.22 34.0093 122.386 33.9027 122.541 33.7531C122.694 33.6035 122.844 33.4138 122.988 33.1811C123.132 32.9499 123.28 32.6673 123.431 32.335L126.002 26.7247H124.51L122.844 30.7035L121.054 26.7247H119.521L122.206 32.148C122.097 32.4458 121.968 32.6521 121.821 32.7657C121.673 32.8806 121.5 32.9374 121.301 32.9374C121.157 32.9374 121.019 32.9111 120.884 32.8598C120.751 32.8072 120.646 32.7601 120.57 32.7186L120.385 33.9041C120.454 33.9525 120.535 33.9941 120.626 34.0287C120.72 34.0633 120.814 34.091 120.91 34.1118C121.006 34.1326 121.098 34.1478 121.187 34.1575C121.276 34.1686 121.359 34.1741 121.434 34.1741C121.66 34.1741 121.863 34.1409 122.042 34.0744ZM129.243 31.7838L131.958 33.6229V32.4804L130.343 31.4098L131.958 30.2784V29.1455L129.243 31.1093V31.7838ZM132.246 31.7838L134.952 33.6229V32.4804L133.337 31.4098L134.952 30.2784V29.1455L132.246 31.1093V31.7838ZM136.557 34.1007H140.033C140.74 34.1007 141.305 33.9082 141.726 33.5246C142.148 33.1396 142.359 32.5884 142.359 31.8669C142.359 31.5137 142.302 31.2021 142.189 30.932C142.075 30.662 141.915 30.4335 141.705 30.2465C141.497 30.0595 141.246 29.9183 140.955 29.8213C140.663 29.7244 140.339 29.6745 139.983 29.6745H137.967V27.9822H141.896V26.7247H136.557V34.1007ZM137.967 32.8862V30.8393H139.9C140.236 30.8393 140.49 30.932 140.661 31.119C140.833 31.306 140.919 31.5525 140.919 31.8572C140.919 32.1757 140.833 32.4264 140.661 32.6106C140.49 32.7934 140.236 32.8862 139.9 32.8862H137.967ZM147.528 33.8044C147.963 33.5385 148.281 33.1978 148.48 32.7823L147.296 32.4485C147.207 32.6701 147.041 32.8488 146.798 32.9845C146.554 33.1188 146.295 33.1867 146.021 33.1867C145.843 33.1867 145.671 33.1548 145.507 33.0939C145.342 33.0316 145.194 32.9402 145.064 32.8238C144.933 32.7061 144.828 32.5635 144.745 32.3973C144.663 32.2311 144.611 32.0414 144.591 31.8253H148.757C148.771 31.7699 148.78 31.7007 148.783 31.6176C148.787 31.5345 148.788 31.4486 148.788 31.3586C148.788 30.9916 148.725 30.6384 148.598 30.2991C148.472 29.9598 148.285 29.6607 148.042 29.4059C147.8 29.1497 147.503 28.9447 147.158 28.7924C146.811 28.64 146.419 28.5638 145.98 28.5638C145.541 28.5638 145.145 28.64 144.792 28.7924C144.438 28.9447 144.138 29.151 143.891 29.41C143.644 29.6704 143.456 29.9709 143.326 30.3144C143.196 30.6564 143.13 31.0221 143.13 31.4098C143.13 31.7838 143.197 32.1411 143.332 32.4804C143.465 32.8197 143.655 33.1174 143.902 33.3737C144.149 33.6299 144.447 33.8321 144.796 33.9816C145.147 34.1298 145.537 34.2046 145.97 34.2046C146.574 34.2046 147.092 34.0717 147.528 33.8044ZM144.57 30.9224C144.584 30.7215 144.63 30.5373 144.71 30.3712C144.788 30.205 144.889 30.0637 145.013 29.946C145.136 29.8283 145.279 29.7369 145.439 29.6704C145.601 29.6039 145.774 29.5707 145.959 29.5707C146.336 29.5707 146.657 29.6939 146.921 29.9404C147.185 30.1856 147.335 30.5138 147.369 30.9224H144.57ZM149.273 34.1423C149.662 34.1284 149.993 34.0675 150.26 33.9609C150.527 33.8528 150.751 33.6686 150.933 33.4055C151.114 33.1424 151.264 32.7864 151.38 32.3405C151.497 31.8932 151.597 31.3267 151.679 30.6412L151.782 29.8213H152.986V34.1007H154.354V28.658H150.578L150.393 30.3407C150.331 30.8739 150.271 31.3046 150.213 31.6342C150.154 31.9624 150.083 32.22 149.997 32.407C149.912 32.5939 149.805 32.7227 149.678 32.792C149.551 32.8612 149.389 32.9028 149.189 32.9166L149.273 34.1423ZM160.454 26.7247H155.999V34.1007H157.409V27.9822H160.454V26.7247ZM163.376 34.0744C163.554 34.0093 163.72 33.9027 163.875 33.7531C164.029 33.6035 164.178 33.4138 164.322 33.1811C164.466 32.9499 164.613 32.6673 164.764 32.335L167.337 26.7247H165.845L164.178 30.7035L162.387 26.7247H160.855L163.541 32.148C163.431 32.4458 163.302 32.6521 163.154 32.7657C163.007 32.8806 162.834 32.9374 162.636 32.9374C162.49 32.9374 162.352 32.9111 162.219 32.8598C162.084 32.8072 161.98 32.7601 161.905 32.7186L161.719 33.9041C161.788 33.9525 161.869 33.9941 161.961 34.0287C162.054 34.0633 162.147 34.091 162.243 34.1118C162.341 34.1326 162.433 34.1478 162.522 34.1575C162.611 34.1686 162.693 34.1741 162.769 34.1741C162.995 34.1741 163.198 34.1409 163.376 34.0744ZM173.334 31.1093L170.619 29.1455V30.2784L172.244 31.4098L170.619 32.4804V33.6229L173.334 31.7838V31.1093ZM170.34 31.1093L167.625 29.1455V30.2784L169.25 31.4098L167.625 32.4804V33.6229L170.34 31.7838V31.1093ZM176.62 29.4419C176.542 29.0915 176.433 28.7397 176.296 28.3866C176.159 28.0334 175.999 27.6789 175.814 27.323C175.627 26.9656 175.43 26.6042 175.216 26.2372L174.157 26.6831C174.267 26.8493 174.395 27.0764 174.542 27.3645C174.69 27.6512 174.83 27.9697 174.965 28.3201C175.098 28.6691 175.213 29.0361 175.309 29.4211C175.405 29.8047 175.453 30.1745 175.453 30.5277C175.453 31.0885 175.336 31.6702 175.103 32.2726C174.87 32.8751 174.564 33.4983 174.187 34.1423L175.196 34.6519C175.408 34.3334 175.609 34.0024 175.797 33.6589C175.986 33.3169 176.15 32.9679 176.287 32.6147C176.424 32.263 176.533 31.9084 176.616 31.5553C176.698 31.2021 176.739 30.849 176.739 30.4958C176.739 30.1426 176.699 29.7909 176.62 29.4419Z" fill="#231F20"/>
<path d="M32.8501 16.4982H31.4814V21.9423H32.8501V19.7403H34.9895V21.9423H36.3582V16.4982H34.9895V18.5562H32.8501V16.4982ZM40.4011 21.7969C40.744 21.6307 41.0347 21.3884 41.2747 21.0698L41.3063 21.3717C41.3405 21.5656 41.4283 21.7207 41.5682 21.8384C41.7081 21.9562 41.9097 22.0157 42.1703 22.0157C42.3417 22.0157 42.5433 21.9908 42.7764 21.9423V20.7582C42.6598 20.7513 42.5762 20.7167 42.5255 20.6543C42.4733 20.592 42.4473 20.4882 42.4473 20.3427V18.649C42.4473 17.9219 42.2333 17.3666 41.8055 16.9816C41.3762 16.5979 40.7742 16.4054 39.9993 16.4054C39.197 16.4054 38.4496 16.6381 37.757 17.1007L38.1781 17.9842C38.4661 17.7834 38.7486 17.6311 39.0215 17.5272C39.2958 17.4233 39.5769 17.3707 39.8663 17.3707C40.2626 17.3707 40.563 17.469 40.7659 17.6629C40.9675 17.8568 41.069 18.1338 41.069 18.4939V18.8055C40.8907 18.7293 40.6864 18.6698 40.4574 18.6282C40.227 18.5867 39.9924 18.5659 39.7524 18.5659C39.4165 18.5659 39.1079 18.6088 38.8267 18.6961C38.5456 18.7833 38.3042 18.9024 38.1013 19.0548C37.8997 19.2071 37.742 19.3927 37.6281 19.6101C37.5143 19.8289 37.4581 20.0658 37.4581 20.322C37.4581 20.5713 37.5047 20.7998 37.598 21.0075C37.6898 21.2152 37.8188 21.3967 37.9833 21.5532C38.1479 21.7083 38.3426 21.8301 38.5689 21.916C38.7952 22.0033 39.0393 22.0462 39.2999 22.0462C39.6907 22.0462 40.0569 21.9631 40.4011 21.7969ZM39.0325 20.7942C38.8542 20.6391 38.765 20.4425 38.765 20.207C38.765 19.9577 38.8775 19.7528 39.1038 19.5893C39.3301 19.4273 39.6222 19.3456 39.9787 19.3456C40.157 19.3456 40.3422 19.365 40.5342 19.4024C40.7262 19.4398 40.9044 19.491 41.069 19.5533V20.1766C41.069 20.322 40.9936 20.4535 40.8427 20.5713C40.7262 20.7097 40.563 20.8205 40.3545 20.9036C40.1447 20.9867 39.9239 21.0283 39.6907 21.0283C39.4302 21.0283 39.2107 20.9507 39.0325 20.7942ZM43.9805 21.9423H48.1771V23.5003H49.3921V20.7374H48.5076V16.4982H47.1389V20.7374H45.3492V16.4982H43.9805V21.9423ZM51.8086 16.4982H50.4413V21.9423H51.4904L54.0111 18.577V21.9423H55.3784V16.4982H54.3608L51.8086 19.9577V16.4982ZM60.5321 21.8177C60.8818 21.6653 61.1767 21.459 61.4167 21.2C61.6567 20.9396 61.8418 20.6405 61.9721 20.3012C62.1024 19.9619 62.1682 19.6046 62.1682 19.2307C62.1682 18.8498 62.1024 18.4897 61.9721 18.1504C61.8418 17.8111 61.6553 17.512 61.4126 17.2516C61.1685 16.9926 60.8736 16.7863 60.5266 16.6339C60.181 16.4816 59.7888 16.4054 59.35 16.4054C58.9111 16.4054 58.5161 16.4816 58.1664 16.6339C57.8167 16.7863 57.5205 16.9926 57.2764 17.2516C57.0336 17.512 56.8458 17.8111 56.7155 18.1504C56.5852 18.4897 56.5207 18.8498 56.5207 19.2307C56.5207 19.6046 56.5852 19.9619 56.7155 20.3012C56.8458 20.6405 57.0336 20.9396 57.2764 21.2C57.5205 21.459 57.8167 21.6653 58.1664 21.8177C58.5161 21.97 58.9111 22.0462 59.35 22.0462C59.7888 22.0462 60.1824 21.97 60.5321 21.8177ZM58.0485 18.577C58.1198 18.3762 58.2199 18.203 58.3461 18.0576C58.4736 17.9122 58.6217 17.7973 58.7945 17.7142C58.966 17.6311 59.1497 17.5895 59.35 17.5895C59.5488 17.5895 59.734 17.6297 59.9054 17.7086C60.0768 17.789 60.2249 17.9011 60.3525 18.0466C60.4786 18.192 60.5788 18.3651 60.6514 18.5659C60.7228 18.7667 60.7584 18.9855 60.7584 19.221C60.7584 19.4633 60.7228 19.6849 60.6514 19.8857C60.5788 20.0865 60.4786 20.2596 60.3525 20.4051C60.2249 20.5505 60.0768 20.6627 59.9054 20.743C59.734 20.8219 59.5488 20.8621 59.35 20.8621C59.1497 20.8621 58.966 20.8219 58.7945 20.743C58.6217 20.6627 58.4736 20.5505 58.3461 20.4051C58.2199 20.2596 58.1198 20.0879 58.0485 19.8913C57.9758 19.6932 57.9402 19.473 57.9402 19.2307C57.9402 18.9952 57.9758 18.7778 58.0485 18.577ZM64.6889 16.4982H63.3202V21.9423H64.6889V19.7403H66.8283V21.9423H68.197V16.4982H66.8283V18.5562H64.6889V16.4982ZM72.2399 21.7969C72.5828 21.6307 72.8735 21.3884 73.1135 21.0698L73.145 21.3717C73.1793 21.5656 73.2657 21.7207 73.407 21.8384C73.5469 21.9562 73.7485 22.0157 74.009 22.0157C74.1805 22.0157 74.382 21.9908 74.6152 21.9423V20.7582C74.4986 20.7513 74.415 20.7167 74.3642 20.6543C74.3121 20.592 74.286 20.4882 74.286 20.3427V18.649C74.286 17.9219 74.0721 17.3666 73.6442 16.9816C73.215 16.5979 72.6129 16.4054 71.8381 16.4054C71.0358 16.4054 70.2884 16.6381 69.5958 17.1007L70.0168 17.9842C70.3048 17.7834 70.586 17.6311 70.8616 17.5272C71.1359 17.4233 71.417 17.3707 71.7037 17.3707C72.1028 17.3707 72.4017 17.469 72.6047 17.6629C72.8063 17.8568 72.9078 18.1338 72.9078 18.4939V18.8055C72.7295 18.7293 72.5252 18.6698 72.2961 18.6282C72.0657 18.5867 71.8312 18.5659 71.5912 18.5659C71.2552 18.5659 70.9467 18.6088 70.6655 18.6961C70.3844 18.7833 70.143 18.9024 69.94 19.0548C69.7384 19.2071 69.5794 19.3927 69.4669 19.6101C69.3544 19.8289 69.2968 20.0658 69.2968 20.322C69.2968 20.5713 69.3435 20.7998 69.4354 21.0075C69.5286 21.2152 69.6575 21.3967 69.8221 21.5532C69.9867 21.7083 70.1814 21.8301 70.4077 21.916C70.634 22.0033 70.8781 22.0462 71.1387 22.0462C71.5295 22.0462 71.897 21.9631 72.2399 21.7969ZM70.8712 20.7942C70.6929 20.6391 70.6038 20.4425 70.6038 20.207C70.6038 19.9577 70.7163 19.7528 70.9425 19.5893C71.1702 19.4273 71.4609 19.3456 71.8175 19.3456C71.9958 19.3456 72.1809 19.365 72.3729 19.4024C72.5649 19.4398 72.7432 19.491 72.9078 19.5533V20.1766C72.9078 20.322 72.8324 20.4535 72.6815 20.5713C72.5649 20.7097 72.4017 20.8205 72.1933 20.9036C71.9834 20.9867 71.7626 21.0283 71.5295 21.0283C71.2689 21.0283 71.0495 20.9507 70.8712 20.7942ZM75.3352 21.9839C75.726 21.97 76.0565 21.9105 76.3226 21.8024C76.59 21.6944 76.8149 21.5102 76.9973 21.2471C77.1784 20.984 77.3278 20.628 77.4444 20.1821C77.561 19.7348 77.6611 19.1683 77.7434 18.4828L77.8462 17.6629H79.049V21.9423H80.4176V16.4982H76.6421L76.457 18.1823C76.3953 18.7155 76.3349 19.1462 76.2773 19.4758C76.2184 19.804 76.1471 20.063 76.0607 20.2486C75.9756 20.4355 75.8687 20.5643 75.7425 20.6336C75.615 20.7028 75.4518 20.7444 75.2529 20.7582L75.3352 21.9839ZM81.9193 21.9423H84.3893C84.6759 21.9423 84.9419 21.9022 85.1861 21.8232C85.4288 21.7429 85.64 21.6238 85.8183 21.4645C85.9966 21.3053 86.1378 21.11 86.2407 20.8773C86.3435 20.646 86.3943 20.3774 86.3943 20.0727C86.3943 19.7749 86.3408 19.5104 86.2352 19.2777C86.1296 19.0465 85.9828 18.8526 85.7977 18.6961C85.6126 18.5396 85.3945 18.4232 85.1449 18.3429C84.8939 18.264 84.6251 18.2238 84.3372 18.2238H83.288V16.4982H81.9193V21.9423ZM83.288 20.851V19.3137H84.2453C84.4647 19.3137 84.6457 19.3816 84.7897 19.5173C84.9337 19.6517 85.0064 19.8442 85.0064 20.0935C85.0064 20.3427 84.9378 20.5311 84.8007 20.6599C84.6622 20.7873 84.4743 20.851 84.2343 20.851H83.288ZM88.823 16.4982H87.4544V21.9423H88.823V19.7403H90.9625V21.9423H92.3298V16.4982H90.9625V18.5562H88.823V16.4982ZM93.8219 21.9423H96.1464C96.4344 21.9423 96.7005 21.9022 96.9446 21.8232C97.1873 21.7429 97.3999 21.6238 97.5823 21.4645C97.7633 21.3053 97.9059 21.11 98.0088 20.8773C98.1116 20.646 98.1638 20.3774 98.1638 20.0727C98.1638 19.7749 98.1103 19.5104 98.0033 19.2777C97.8977 19.0465 97.7523 18.8526 97.5658 18.6961C97.382 18.5396 97.164 18.4232 96.913 18.3429C96.6634 18.264 96.3905 18.2238 96.0957 18.2238H95.1905V16.4982H93.8219V21.9423ZM98.7494 21.9423H100.107V16.4982H98.7494V21.9423ZM95.1905 20.851V19.3137H96.0024C96.2218 19.3137 96.4042 19.3816 96.5482 19.5173C96.6922 19.6517 96.7649 19.8442 96.7649 20.0935C96.7649 20.3427 96.695 20.5311 96.5578 20.6599C96.4207 20.7873 96.2355 20.851 96.0024 20.851H95.1905ZM105.128 14.3585C105.087 14.8709 104.771 15.1271 104.182 15.1271C103.887 15.1271 103.658 15.0648 103.497 14.9402C103.337 14.8155 103.252 14.6217 103.245 14.3585H102.484C102.497 14.7948 102.659 15.1368 102.968 15.382C103.276 15.6285 103.681 15.7504 104.182 15.7504C104.682 15.7504 105.087 15.6285 105.395 15.382C105.704 15.1368 105.866 14.7948 105.879 14.3585H105.128ZM102.977 16.4982H101.61V21.9423H102.659L105.18 18.577V21.9423H106.547V16.4982H105.53L102.977 19.9577V16.4982ZM111.709 16.4982H110.341V21.9423H111.39L113.91 18.577V21.9423H115.279V16.4982H114.26L111.709 19.9577V16.4982ZM116.62 20.2957C116.755 20.6391 116.945 20.9396 117.192 21.2C117.439 21.459 117.737 21.6653 118.086 21.8177C118.436 21.97 118.831 22.0462 119.27 22.0462C119.866 22.0462 120.378 21.9146 120.803 21.6515C121.228 21.3884 121.533 21.049 121.718 20.6336L120.371 20.2181C120.289 20.3981 120.142 20.5505 119.934 20.6751C119.724 20.7998 119.496 20.8621 119.249 20.8621C119.057 20.8621 118.875 20.8219 118.703 20.743C118.533 20.6627 118.384 20.5505 118.256 20.4051C118.13 20.2596 118.029 20.0865 117.953 19.8857C117.878 19.6849 117.839 19.4633 117.839 19.221C117.839 18.9786 117.876 18.757 117.948 18.5562C118.02 18.3554 118.119 18.1837 118.247 18.041C118.373 17.8997 118.522 17.789 118.694 17.7086C118.865 17.6297 119.05 17.5895 119.249 17.5895C119.482 17.5895 119.695 17.6435 119.887 17.7502C120.079 17.8582 120.234 18.0119 120.351 18.2127L121.697 17.7973C121.492 17.3818 121.182 17.0453 120.766 16.789C120.352 16.5342 119.85 16.4054 119.259 16.4054C118.82 16.4054 118.426 16.4816 118.077 16.6339C117.727 16.7863 117.428 16.9912 117.181 17.2475C116.934 17.5037 116.746 17.8014 116.616 18.1407C116.486 18.48 116.42 18.8401 116.42 19.221C116.42 19.5949 116.487 19.9536 116.62 20.2957ZM122.567 20.2957C122.701 20.6391 122.892 20.9396 123.137 21.2C123.384 21.459 123.683 21.6653 124.033 21.8177C124.382 21.97 124.777 22.0462 125.216 22.0462C125.813 22.0462 126.323 21.9146 126.748 21.6515C127.173 21.3884 127.479 21.049 127.664 20.6336L126.316 20.2181C126.234 20.3981 126.089 20.5505 125.88 20.6751C125.67 20.7998 125.443 20.8621 125.196 20.8621C125.004 20.8621 124.821 20.8219 124.65 20.743C124.478 20.6627 124.329 20.5505 124.203 20.4051C124.075 20.2596 123.975 20.0865 123.898 19.8857C123.823 19.6849 123.786 19.4633 123.786 19.221C123.786 18.9786 123.822 18.757 123.894 18.5562C123.966 18.3554 124.066 18.1837 124.193 18.041C124.319 17.8997 124.469 17.789 124.64 17.7086C124.812 17.6297 124.997 17.5895 125.196 17.5895C125.429 17.5895 125.641 17.6435 125.833 17.7502C126.025 17.8582 126.179 18.0119 126.296 18.2127L127.644 17.7973C127.438 17.3818 127.128 17.0453 126.713 16.789C126.297 16.5342 125.795 16.4054 125.205 16.4054C124.766 16.4054 124.373 16.4816 124.023 16.6339C123.673 16.7863 123.374 16.9912 123.128 17.2475C122.881 17.5037 122.692 17.8014 122.561 18.1407C122.431 18.48 122.366 18.8401 122.366 19.221C122.366 19.5949 122.434 19.9536 122.567 20.2957ZM128.179 21.9839C128.569 21.97 128.899 21.9105 129.166 21.8024C129.433 21.6944 129.658 21.5102 129.841 21.2471C130.022 20.984 130.171 20.628 130.288 20.1821C130.404 19.7348 130.503 19.1683 130.587 18.4828L130.69 17.6629H131.892V21.9423H133.261V16.4982H129.486L129.3 18.1823C129.239 18.7155 129.178 19.1462 129.119 19.4758C129.062 19.804 128.989 20.063 128.904 20.2486C128.818 20.4355 128.712 20.5643 128.586 20.6336C128.458 20.7028 128.295 20.7444 128.096 20.7582L128.179 21.9839ZM138.8 21.6459C139.236 21.38 139.553 21.0394 139.752 20.6225L138.568 20.2901C138.479 20.5131 138.313 20.6904 138.071 20.8261C137.826 20.9604 137.567 21.0283 137.293 21.0283C137.115 21.0283 136.943 20.9978 136.779 20.9355C136.614 20.8718 136.467 20.7818 136.337 20.664C136.207 20.5463 136.1 20.4051 136.018 20.2389C135.935 20.0727 135.885 19.8816 135.864 19.6669H140.03C140.044 19.6115 140.052 19.5423 140.055 19.4592C140.059 19.3761 140.06 19.2902 140.06 19.2002C140.06 18.8332 139.997 18.48 139.87 18.1407C139.744 17.8014 139.559 17.5037 139.314 17.2475C139.072 16.9912 138.777 16.7863 138.43 16.6339C138.084 16.4816 137.691 16.4054 137.252 16.4054C136.813 16.4054 136.417 16.4816 136.064 16.6339C135.71 16.7863 135.41 16.9926 135.165 17.2516C134.918 17.512 134.728 17.8125 134.598 18.156C134.468 18.4994 134.403 18.8637 134.403 19.2514C134.403 19.6254 134.469 19.9827 134.604 20.322C134.737 20.6613 134.927 20.959 135.174 21.2152C135.421 21.4714 135.72 21.6736 136.07 21.8232C136.419 21.9714 136.81 22.0462 137.242 22.0462C137.846 22.0462 138.364 21.9132 138.8 21.6459ZM135.843 18.7639C135.857 18.5631 135.902 18.3789 135.982 18.2127C136.06 18.0466 136.162 17.9053 136.285 17.7862C136.408 17.6699 136.551 17.5771 136.711 17.512C136.873 17.4455 137.046 17.4136 137.231 17.4136C137.608 17.4136 137.929 17.5369 138.194 17.782C138.457 18.0272 138.607 18.3554 138.641 18.7639H135.843ZM140.472 23.5003H141.655V21.9423H145.255V23.5003H146.48V20.7374H145.76V16.4982H141.985L141.799 18.1823C141.745 18.6739 141.691 19.0783 141.64 19.3968C141.588 19.7154 141.522 19.9702 141.444 20.1613C141.365 20.351 141.273 20.4895 141.167 20.5768C141.06 20.6627 140.924 20.7167 140.76 20.7374H140.472V23.5003ZM142.458 20.7374C142.609 20.502 142.733 20.207 142.833 19.8539C142.932 19.5007 143.016 19.0437 143.086 18.4828L143.189 17.6629H144.391V20.7374H142.458ZM151.233 21.8177C151.583 21.6653 151.878 21.459 152.118 21.2C152.358 20.9396 152.543 20.6405 152.673 20.3012C152.804 19.9619 152.868 19.6046 152.868 19.2307C152.868 18.8498 152.804 18.4897 152.673 18.1504C152.543 17.8111 152.355 17.512 152.112 17.2516C151.868 16.9926 151.574 16.7863 151.228 16.6339C150.881 16.4816 150.489 16.4054 150.05 16.4054C149.611 16.4054 149.216 16.4816 148.866 16.6339C148.517 16.7863 148.22 16.9926 147.976 17.2516C147.734 17.512 147.547 17.8111 147.417 18.1504C147.285 18.4897 147.221 18.8498 147.221 19.2307C147.221 19.6046 147.285 19.9619 147.417 20.3012C147.547 20.6405 147.734 20.9396 147.976 21.2C148.22 21.459 148.517 21.6653 148.866 21.8177C149.216 21.97 149.611 22.0462 150.05 22.0462C150.489 22.0462 150.882 21.97 151.233 21.8177ZM148.748 18.577C148.82 18.3762 148.92 18.203 149.047 18.0576C149.174 17.9122 149.323 17.7973 149.494 17.7142C149.666 17.6311 149.851 17.5895 150.05 17.5895C150.249 17.5895 150.434 17.6297 150.605 17.7086C150.777 17.789 150.926 17.9011 151.052 18.0466C151.18 18.192 151.279 18.3651 151.351 18.5659C151.423 18.7667 151.458 18.9855 151.458 19.221C151.458 19.4633 151.423 19.6849 151.351 19.8857C151.279 20.0865 151.18 20.2596 151.052 20.4051C150.926 20.5505 150.777 20.6627 150.605 20.743C150.434 20.8219 150.249 20.8621 150.05 20.8621C149.851 20.8621 149.666 20.8219 149.494 20.743C149.323 20.6627 149.174 20.5505 149.047 20.4051C148.92 20.2596 148.82 20.0879 148.748 19.8913C148.676 19.6932 148.64 19.473 148.64 19.2307C148.64 18.9952 148.676 18.7778 148.748 18.577ZM154.031 16.4982V21.9423H156.86C157.464 21.9423 157.937 21.8218 158.28 21.5795C158.623 21.3371 158.794 20.966 158.794 20.4674C158.794 20.0935 158.703 19.7971 158.521 19.5797C158.34 19.3608 158.09 19.2071 157.775 19.1171C158.056 18.9994 158.259 18.8207 158.383 18.5811C158.506 18.3429 158.568 18.1061 158.568 17.8707C158.568 17.6823 158.535 17.5064 158.47 17.3402C158.405 17.1741 158.313 17.0286 158.192 16.904C158.073 16.7794 157.93 16.681 157.765 16.6076C157.601 16.5356 157.418 16.4982 157.22 16.4982H154.031ZM155.4 18.7736V17.5064H156.613C156.812 17.5064 156.96 17.5674 157.061 17.6879C157.159 17.8097 157.21 17.9565 157.21 18.1296C157.21 18.3374 157.151 18.4966 157.034 18.6074C156.918 18.7182 156.764 18.7736 156.572 18.7736H155.4ZM155.4 20.9355V19.5838H156.767C156.966 19.5838 157.124 19.6475 157.24 19.7763C157.357 19.9051 157.416 20.0658 157.416 20.2596C157.416 20.4466 157.355 20.6059 157.235 20.7374C157.115 20.869 156.956 20.9355 156.757 20.9355H155.4ZM162.508 21.7969C162.851 21.6307 163.141 21.3884 163.381 21.0698L163.413 21.3717C163.447 21.5656 163.535 21.7207 163.675 21.8384C163.816 21.9562 164.016 22.0157 164.277 22.0157C164.448 22.0157 164.65 21.9908 164.884 21.9423V20.7582C164.767 20.7513 164.683 20.7167 164.632 20.6543C164.58 20.592 164.555 20.4882 164.555 20.3427V18.649C164.555 17.9219 164.34 17.3666 163.912 16.9816C163.483 16.5979 162.881 16.4054 162.106 16.4054C161.304 16.4054 160.556 16.6381 159.864 17.1007L160.286 17.9842C160.574 17.7834 160.855 17.6311 161.13 17.5272C161.404 17.4233 161.685 17.3707 161.973 17.3707C162.371 17.3707 162.671 17.469 162.873 17.6629C163.076 17.8568 163.176 18.1338 163.176 18.4939V18.8055C162.997 18.7293 162.793 18.6698 162.564 18.6282C162.334 18.5867 162.099 18.5659 161.859 18.5659C161.523 18.5659 161.215 18.6088 160.933 18.6961C160.652 18.7833 160.411 18.9024 160.208 19.0548C160.006 19.2071 159.849 19.3927 159.735 19.6101C159.622 19.8289 159.566 20.0658 159.566 20.322C159.566 20.5713 159.611 20.7998 159.705 21.0075C159.797 21.2152 159.925 21.3967 160.09 21.5532C160.255 21.7083 160.449 21.8301 160.677 21.916C160.903 22.0033 161.146 22.0462 161.407 22.0462C161.797 22.0462 162.165 21.9631 162.508 21.7969ZM161.139 20.7942C160.961 20.6391 160.872 20.4425 160.872 20.207C160.872 19.9577 160.986 19.7528 161.212 19.5893C161.438 19.4273 161.729 19.3456 162.085 19.3456C162.264 19.3456 162.449 19.365 162.641 19.4024C162.833 19.4398 163.011 19.491 163.176 19.5533V20.1766C163.176 20.322 163.1 20.4535 162.949 20.5713C162.833 20.7097 162.671 20.8205 162.461 20.9036C162.251 20.9867 162.031 21.0283 161.797 21.0283C161.537 21.0283 161.317 20.9507 161.139 20.7942ZM168.515 17.7045H170.192V16.4982H165.46V17.7045H167.147V21.9423H168.515V17.7045ZM175.001 21.6459C175.438 21.38 175.754 21.0394 175.953 20.6225L174.77 20.2901C174.68 20.5131 174.515 20.6904 174.27 20.8261C174.028 20.9604 173.768 21.0283 173.494 21.0283C173.316 21.0283 173.144 20.9978 172.98 20.9355C172.815 20.8718 172.667 20.7818 172.537 20.664C172.407 20.5463 172.301 20.4051 172.219 20.2389C172.137 20.0727 172.084 19.8816 172.064 19.6669H176.23C176.244 19.6115 176.252 19.5423 176.256 19.4592C176.26 19.3761 176.262 19.2902 176.262 19.2002C176.262 18.8332 176.199 18.48 176.071 18.1407C175.944 17.8014 175.76 17.5037 175.516 17.2475C175.272 16.9912 174.977 16.7863 174.631 16.6339C174.284 16.4816 173.892 16.4054 173.453 16.4054C173.014 16.4054 172.618 16.4816 172.265 16.6339C171.912 16.7863 171.611 16.9926 171.364 17.2516C171.118 17.512 170.93 17.8125 170.799 18.156C170.669 18.4994 170.603 18.8637 170.603 19.2514C170.603 19.6254 170.67 19.9827 170.803 20.322C170.938 20.6613 171.129 20.959 171.375 21.2152C171.622 21.4714 171.92 21.6736 172.27 21.8232C172.619 21.9714 173.011 22.0462 173.442 22.0462C174.047 22.0462 174.565 21.9132 175.001 21.6459ZM172.043 18.7639C172.057 18.5631 172.104 18.3789 172.183 18.2127C172.261 18.0466 172.363 17.9053 172.486 17.7862C172.61 17.6699 172.752 17.5771 172.913 17.512C173.075 17.4455 173.247 17.4136 173.432 17.4136C173.81 17.4136 174.131 17.5369 174.394 17.782C174.659 18.0272 174.808 18.3554 174.842 18.7639H172.043ZM176.744 21.9839C177.137 21.97 177.464 21.9105 177.733 21.8024C178.001 21.6944 178.224 21.5102 178.407 21.2471C178.588 20.984 178.737 20.628 178.854 20.1821C178.97 19.7348 179.07 19.1683 179.153 18.4828L179.256 17.6629H180.458V21.9423H181.827V16.4982H178.051L177.866 18.1823C177.805 18.7155 177.744 19.1462 177.687 19.4758C177.628 19.804 177.556 20.063 177.47 20.2486C177.385 20.4355 177.278 20.5643 177.152 20.6336C177.024 20.7028 176.861 20.7444 176.662 20.7582L176.744 21.9839ZM183.329 21.9423H185.799C186.087 21.9423 186.351 21.9022 186.595 21.8232C186.838 21.7429 187.049 21.6238 187.228 21.4645C187.406 21.3053 187.547 21.11 187.65 20.8773C187.753 20.646 187.804 20.3774 187.804 20.0727C187.804 19.7749 187.75 19.5104 187.644 19.2777C187.537 19.0465 187.392 18.8526 187.207 18.6961C187.022 18.5396 186.804 18.4232 186.554 18.3429C186.303 18.264 186.034 18.2238 185.746 18.2238H184.697V16.4982H183.329V21.9423ZM184.697 20.851V19.3137H185.653C185.873 19.3137 186.055 19.3816 186.199 19.5173C186.343 19.6517 186.416 19.8442 186.416 20.0935C186.416 20.3427 186.346 20.5311 186.21 20.6599C186.073 20.7873 185.884 20.851 185.644 20.851H184.697ZM188.705 20.2957C188.838 20.6391 189.028 20.9396 189.275 21.2C189.522 21.459 189.82 21.6653 190.171 21.8177C190.52 21.97 190.914 22.0462 191.353 22.0462C191.949 22.0462 192.461 21.9146 192.886 21.6515C193.311 21.3884 193.616 21.049 193.801 20.6336L192.454 20.2181C192.372 20.3981 192.225 20.5505 192.017 20.6751C191.807 20.7998 191.579 20.8621 191.332 20.8621C191.14 20.8621 190.959 20.8219 190.788 20.743C190.615 20.6627 190.467 20.5505 190.339 20.4051C190.213 20.2596 190.112 20.0865 190.036 19.8857C189.961 19.6849 189.922 19.4633 189.922 19.221C189.922 18.9786 189.959 18.757 190.031 18.5562C190.103 18.3554 190.202 18.1837 190.33 18.041C190.456 17.8997 190.605 17.789 190.777 17.7086C190.948 17.6297 191.133 17.5895 191.332 17.5895C191.565 17.5895 191.778 17.6435 191.97 17.7502C192.162 17.8582 192.317 18.0119 192.433 18.2127L193.782 17.7973C193.576 17.3818 193.265 17.0453 192.85 16.789C192.435 16.5342 191.933 16.4054 191.343 16.4054C190.904 16.4054 190.509 16.4816 190.16 16.6339C189.81 16.7863 189.511 16.9912 189.264 17.2475C189.017 17.5037 188.829 17.8014 188.699 18.1407C188.569 18.48 188.503 18.8401 188.503 19.221C188.503 19.5949 188.57 19.9536 188.705 20.2957ZM196.538 18.6601H196.23V16.4982H194.87V21.9423H196.23V19.8442H196.589L198.256 21.9423H199.82L197.556 19.1379L199.655 16.4982H198.173L196.538 18.6601ZM201.989 16.4982H200.622V21.9423H201.671L204.191 18.577V21.9423H205.559V16.4982H204.542L201.989 19.9577V16.4982ZM210.58 14.3585C210.539 14.8709 210.223 15.1271 209.634 15.1271C209.339 15.1271 209.11 15.0648 208.949 14.9402C208.788 14.8155 208.704 14.6217 208.697 14.3585H207.936C207.95 14.7948 208.11 15.1368 208.419 15.382C208.727 15.6285 209.133 15.7504 209.634 15.7504C210.133 15.7504 210.539 15.6285 210.847 15.382C211.156 15.1368 211.316 14.7948 211.33 14.3585H210.58ZM208.43 16.4982H207.061V21.9423H208.11L210.631 18.577V21.9423H211.999V16.4982H210.98L208.43 19.9577V16.4982Z" fill="#231F20"/>
<path d="M31.627 9.78411H35.1035C35.8111 9.78411 36.3748 9.59161 36.7958 9.20799C37.2182 8.82298 37.4294 8.27179 37.4294 7.55025C37.4294 7.19709 37.3732 6.88549 37.2594 6.61543C37.1455 6.34537 36.9851 6.11686 36.7766 5.92989C36.5668 5.74293 36.3158 5.60167 36.0251 5.50473C35.733 5.40778 35.4093 5.35792 35.0527 5.35792H33.0368V3.66556H36.9659V2.40805H31.627V9.78411ZM33.0368 8.56954V6.52264H34.9705C35.3065 6.52264 35.5602 6.61543 35.7316 6.80239C35.903 6.98935 35.9894 7.23587 35.9894 7.54055C35.9894 7.85908 35.903 8.10975 35.7316 8.29394C35.5602 8.47675 35.3065 8.56954 34.9705 8.56954H33.0368ZM42.5983 9.48774C43.0344 9.22184 43.3512 8.88115 43.55 8.46567L42.3665 8.13191C42.2774 8.3535 42.1114 8.53215 41.8687 8.66787C41.6246 8.80221 41.3654 8.87007 41.0911 8.87007C40.9128 8.87007 40.7414 8.8396 40.5768 8.77728C40.4122 8.71496 40.2641 8.62355 40.1352 8.50584C40.0036 8.38812 39.898 8.24686 39.8157 8.08067C39.7334 7.91448 39.6813 7.72336 39.6621 7.5087H43.8284C43.8421 7.4533 43.8504 7.38406 43.8531 7.30096C43.8572 7.21787 43.8586 7.132 43.8586 7.04198C43.8586 6.67498 43.7955 6.32183 43.668 5.98252C43.5418 5.64322 43.3567 5.34546 43.1126 5.08925C42.8698 4.83304 42.575 4.62807 42.228 4.47573C41.8824 4.32339 41.4888 4.24722 41.0499 4.24722C40.6111 4.24722 40.2148 4.32339 39.8623 4.47573C39.5085 4.62807 39.2081 4.83443 38.9613 5.09341C38.7144 5.35377 38.5265 5.6543 38.3963 5.99776C38.266 6.33983 38.2001 6.70545 38.2001 7.09322C38.2001 7.46715 38.2673 7.82446 38.4017 8.16376C38.5348 8.50307 38.7254 8.80082 38.9723 9.05703C39.2191 9.31324 39.5167 9.51544 39.8678 9.66501C40.2175 9.8132 40.6084 9.88798 41.0403 9.88798C41.6438 9.88798 42.1635 9.75503 42.5983 9.48774ZM39.6415 6.60573C39.6552 6.40492 39.7005 6.22073 39.78 6.05454C39.8582 5.88835 39.9597 5.74709 40.0831 5.62937C40.2065 5.51165 40.3492 5.41886 40.5096 5.35377C40.6714 5.28729 40.8442 5.25406 41.0294 5.25406C41.4065 5.25406 41.7274 5.37731 41.9921 5.62383C42.2554 5.86896 42.4049 6.19718 42.4392 6.60573H39.6415ZM44.3427 9.82566C44.7336 9.81181 45.0627 9.75226 45.3301 9.64424C45.5976 9.53621 45.8225 9.35202 46.0035 9.08889C46.1859 8.82575 46.334 8.46983 46.4506 8.02389C46.5672 7.57656 46.6673 7.01013 46.7495 6.3246L46.8524 5.50473H48.0565V9.78411H49.4238V4.34001H45.6483L45.4632 6.02407C45.4014 6.55726 45.3411 6.98797 45.2835 7.31758C45.2245 7.6458 45.1532 7.9034 45.0682 8.09036C44.9818 8.27733 44.8748 8.40612 44.7487 8.47537C44.6211 8.54461 44.4593 8.58616 44.2604 8.60001L44.3427 9.82566ZM54.5474 4.34001H50.9255V9.78411H52.2942V5.49365H54.5474V4.34001ZM58.9195 9.65947C59.2692 9.50713 59.5641 9.30078 59.8041 9.0418C60.044 8.78143 60.2292 8.48229 60.3595 8.14299C60.4898 7.80368 60.5556 7.44638 60.5556 7.07245C60.5556 6.6916 60.4898 6.33152 60.3595 5.99222C60.2292 5.65291 60.0427 5.35377 59.7986 5.09341C59.5558 4.83443 59.261 4.62807 58.914 4.47573C58.5684 4.32339 58.1748 4.24722 57.736 4.24722C57.2971 4.24722 56.9035 4.32339 56.5538 4.47573C56.2041 4.62807 55.9065 4.83443 55.6637 5.09341C55.4196 5.35377 55.2331 5.65291 55.1028 5.99222C54.9726 6.33152 54.9067 6.6916 54.9067 7.07245C54.9067 7.44638 54.9726 7.80368 55.1028 8.14299C55.2331 8.48229 55.4196 8.78143 55.6637 9.0418C55.9065 9.30078 56.2041 9.50713 56.5538 9.65947C56.9035 9.81181 57.2971 9.88798 57.736 9.88798C58.1748 9.88798 58.5698 9.81181 58.9195 9.65947ZM56.4359 6.41877C56.5072 6.21796 56.6059 6.04484 56.7335 5.89943C56.861 5.75401 57.0091 5.63906 57.1805 5.55597C57.352 5.47287 57.5371 5.43132 57.736 5.43132C57.9348 5.43132 58.12 5.47149 58.2928 5.55043C58.4628 5.63075 58.6123 5.74293 58.7398 5.88835C58.866 6.03376 58.9661 6.20688 59.0374 6.40769C59.1101 6.6085 59.1458 6.82732 59.1458 7.06276C59.1458 7.30512 59.1101 7.5267 59.0374 7.72751C58.9661 7.92833 58.866 8.10144 58.7398 8.24686C58.6123 8.39227 58.4628 8.50445 58.2928 8.58478C58.12 8.66372 57.9348 8.70388 57.736 8.70388C57.5371 8.70388 57.352 8.66372 57.1805 8.58478C57.0091 8.50445 56.861 8.39227 56.7335 8.24686C56.6059 8.10144 56.5072 7.92971 56.4359 7.73305C56.3632 7.53501 56.3275 7.31481 56.3275 7.07245C56.3275 6.83701 56.3632 6.61958 56.4359 6.41877ZM65.8835 9.67055C66.1715 9.52375 66.4198 9.32432 66.6296 9.06673C66.8394 8.8119 67.0012 8.50999 67.1178 8.16376C67.2344 7.81753 67.2934 7.44638 67.2934 7.05168C67.2934 6.67082 67.2303 6.30936 67.1027 5.96729C66.9752 5.62383 66.801 5.32607 66.5788 5.07263C66.3553 4.82058 66.0892 4.61976 65.7807 4.47019C65.4721 4.32201 65.1361 4.24722 64.7727 4.24722C64.3613 4.24722 63.9978 4.33863 63.6824 4.52282C63.367 4.70563 63.1092 4.95768 62.9103 5.27621V4.34001H61.7076V11.9972H63.0858V8.82852C63.2641 9.15398 63.511 9.41157 63.8264 9.60269C64.1418 9.79242 64.5121 9.88798 64.9373 9.88798C65.2801 9.88798 65.5955 9.81597 65.8835 9.67055ZM63.6509 8.39781C63.3972 8.19285 63.2093 7.93525 63.0858 7.62365V6.34537C63.1338 6.2138 63.2038 6.09331 63.297 5.98252C63.3889 5.87173 63.4932 5.7734 63.6097 5.69169C63.7263 5.60859 63.8538 5.5435 63.991 5.49919C64.1281 5.45348 64.2625 5.43132 64.3928 5.43132C64.604 5.43132 64.8015 5.47287 64.9839 5.55597C65.1649 5.63906 65.3226 5.75401 65.457 5.89943C65.5914 6.04484 65.6957 6.21519 65.7711 6.41323C65.8465 6.60989 65.8835 6.82316 65.8835 7.05168C65.8835 7.26634 65.8493 7.47407 65.7807 7.67489C65.7121 7.87709 65.6161 8.05297 65.4927 8.20531C65.3693 8.35765 65.2198 8.47952 65.0456 8.56954C64.8701 8.65956 64.6808 8.70388 64.4751 8.70388C64.1789 8.70388 63.9046 8.6014 63.6509 8.39781ZM72.0974 9.65947C72.4471 9.50713 72.742 9.30078 72.982 9.0418C73.222 8.78143 73.4071 8.48229 73.5374 8.14299C73.6677 7.80368 73.7335 7.44638 73.7335 7.07245C73.7335 6.6916 73.6677 6.33152 73.5374 5.99222C73.4071 5.65291 73.2206 5.35377 72.9765 5.09341C72.7338 4.83443 72.4389 4.62807 72.0919 4.47573C71.7463 4.32339 71.3527 4.24722 70.9139 4.24722C70.475 4.24722 70.0814 4.32339 69.7317 4.47573C69.382 4.62807 69.0844 4.83443 68.8417 5.09341C68.5976 5.35377 68.4111 5.65291 68.2808 5.99222C68.1505 6.33152 68.0847 6.6916 68.0847 7.07245C68.0847 7.44638 68.1505 7.80368 68.2808 8.14299C68.4111 8.48229 68.5976 8.78143 68.8417 9.0418C69.0844 9.30078 69.382 9.50713 69.7317 9.65947C70.0814 9.81181 70.475 9.88798 70.9139 9.88798C71.3527 9.88798 71.7477 9.81181 72.0974 9.65947ZM69.6124 6.41877C69.6851 6.21796 69.7838 6.04484 69.9114 5.89943C70.0389 5.75401 70.187 5.63906 70.3585 5.55597C70.5299 5.47287 70.715 5.43132 70.9139 5.43132C71.1127 5.43132 71.2979 5.47149 71.4693 5.55043C71.6407 5.63075 71.7902 5.74293 71.9178 5.88835C72.0439 6.03376 72.144 6.20688 72.2154 6.40769C72.288 6.6085 72.3237 6.82732 72.3237 7.06276C72.3237 7.30512 72.288 7.5267 72.2154 7.72751C72.144 7.92833 72.0439 8.10144 71.9178 8.24686C71.7902 8.39227 71.6407 8.50445 71.4693 8.58478C71.2979 8.66372 71.1127 8.70388 70.9139 8.70388C70.715 8.70388 70.5299 8.66372 70.3585 8.58478C70.187 8.50445 70.0389 8.39227 69.9114 8.24686C69.7838 8.10144 69.6851 7.92971 69.6124 7.73305C69.5411 7.53501 69.5054 7.31481 69.5054 7.07245C69.5054 6.83701 69.5411 6.61958 69.6124 6.41877ZM74.1655 11.3421H75.3477V9.78411H78.949V11.3421H80.1723V8.57924H79.4523V4.34001H75.6768L75.4917 6.02407C75.4368 6.51571 75.3847 6.92011 75.3326 7.23864C75.2818 7.55717 75.216 7.81199 75.1378 8.00311C75.0583 8.19285 74.965 8.33134 74.8595 8.41859C74.7525 8.50445 74.6181 8.55846 74.4535 8.57924H74.1655V11.3421ZM76.15 8.57924C76.3008 8.3438 76.427 8.0502 76.5257 7.69566C76.6258 7.34251 76.7095 6.88549 76.7781 6.3246L76.8809 5.50473H78.085V8.57924H76.15ZM81.1145 8.13745C81.2475 8.48091 81.4381 8.78143 81.685 9.0418C81.9318 9.30078 82.2308 9.50713 82.5805 9.65947C82.9302 9.81181 83.3238 9.88798 83.7627 9.88798C84.3606 9.88798 84.8708 9.75642 85.2959 9.49328C85.7211 9.23015 86.0269 8.89084 86.212 8.47537L84.8639 8.05989C84.7816 8.23993 84.6363 8.39227 84.4264 8.51692C84.218 8.64156 83.989 8.70388 83.7421 8.70388C83.5501 8.70388 83.3691 8.66372 83.1977 8.58478C83.0262 8.50445 82.8767 8.39227 82.7506 8.24686C82.623 8.10144 82.5215 7.92833 82.4461 7.72751C82.3707 7.5267 82.3337 7.30512 82.3337 7.06276C82.3337 6.82039 82.3693 6.59881 82.4406 6.398C82.5133 6.19718 82.6121 6.02545 82.7396 5.88281C82.8658 5.74155 83.0153 5.63075 83.1867 5.55043C83.3581 5.47149 83.5433 5.43132 83.7421 5.43132C83.9752 5.43132 84.1878 5.48534 84.3798 5.59197C84.5718 5.7 84.7268 5.85372 84.8434 6.05454L86.1915 5.63906C85.9857 5.22359 85.6744 4.88705 85.2603 4.63084C84.8447 4.37602 84.3428 4.24722 83.7531 4.24722C83.3142 4.24722 82.9193 4.32339 82.5695 4.47573C82.2198 4.62807 81.9222 4.83304 81.6754 5.08925C81.4285 5.34546 81.2393 5.64322 81.109 5.98252C80.9787 6.32183 80.9142 6.6819 80.9142 7.06276C80.9142 7.43668 80.9801 7.79538 81.1145 8.13745ZM88.948 6.50186H88.6394V4.34001H87.2817V9.78411H88.6394V7.68597H89.0001L90.6664 9.78411H92.2298L89.967 6.97966L92.0652 4.34001H90.5841L88.948 6.50186ZM94.4007 4.34001H93.0321V9.78411H94.0812L96.6019 6.41877V9.78411H97.9692V4.34001H96.9516L94.4007 7.79953V4.34001ZM102.99 2.20032C102.949 2.71274 102.633 2.96895 102.044 2.96895C101.749 2.96895 101.521 2.90662 101.359 2.78198C101.199 2.65734 101.114 2.46345 101.107 2.20032H100.346C100.36 2.63657 100.521 2.97864 100.83 3.22377C101.139 3.47028 101.543 3.59216 102.044 3.59216C102.544 3.59216 102.949 3.47028 103.257 3.22377C103.566 2.97864 103.728 2.63657 103.74 2.20032H102.99ZM100.84 4.34001H99.4722V9.78411H100.521L103.042 6.41877V9.78411H104.409V4.34001H103.392L100.84 7.79953V4.34001ZM112.207 4.34001H108.587V9.78411H109.954V5.49365H112.207V4.34001ZM116.579 9.65947C116.929 9.50713 117.224 9.30078 117.464 9.0418C117.704 8.78143 117.889 8.48229 118.019 8.14299C118.15 7.80368 118.215 7.44638 118.215 7.07245C118.215 6.6916 118.15 6.33152 118.019 5.99222C117.889 5.65291 117.702 5.35377 117.458 5.09341C117.216 4.83443 116.921 4.62807 116.574 4.47573C116.228 4.32339 115.835 4.24722 115.396 4.24722C114.957 4.24722 114.563 4.32339 114.214 4.47573C113.864 4.62807 113.566 4.83443 113.324 5.09341C113.079 5.35377 112.893 5.65291 112.763 5.99222C112.632 6.33152 112.568 6.6916 112.568 7.07245C112.568 7.44638 112.632 7.80368 112.763 8.14299C112.893 8.48229 113.079 8.78143 113.324 9.0418C113.566 9.30078 113.864 9.50713 114.214 9.65947C114.563 9.81181 114.957 9.88798 115.396 9.88798C115.835 9.88798 116.23 9.81181 116.579 9.65947ZM114.094 6.41877C114.167 6.21796 114.266 6.04484 114.393 5.89943C114.519 5.75401 114.669 5.63906 114.84 5.55597C115.012 5.47287 115.197 5.43132 115.396 5.43132C115.595 5.43132 115.78 5.47149 115.951 5.55043C116.123 5.63075 116.272 5.74293 116.4 5.88835C116.526 6.03376 116.626 6.20688 116.697 6.40769C116.77 6.6085 116.806 6.82732 116.806 7.06276C116.806 7.30512 116.77 7.5267 116.697 7.72751C116.626 7.92833 116.526 8.10144 116.4 8.24686C116.272 8.39227 116.123 8.50445 115.951 8.58478C115.78 8.66372 115.595 8.70388 115.396 8.70388C115.197 8.70388 115.012 8.66372 114.84 8.58478C114.669 8.50445 114.519 8.39227 114.393 8.24686C114.266 8.10144 114.167 7.92971 114.094 7.73305C114.023 7.53501 113.987 7.31481 113.987 7.07245C113.987 6.83701 114.023 6.61958 114.094 6.41877ZM119.208 8.13745C119.341 8.48091 119.532 8.78143 119.779 9.0418C120.026 9.30078 120.323 9.50713 120.673 9.65947C121.024 9.81181 121.418 9.88798 121.856 9.88798C122.453 9.88798 122.965 9.75642 123.39 9.49328C123.815 9.23015 124.119 8.89084 124.304 8.47537L122.958 8.05989C122.875 8.23993 122.73 8.39227 122.52 8.51692C122.31 8.64156 122.083 8.70388 121.836 8.70388C121.644 8.70388 121.463 8.66372 121.29 8.58478C121.119 8.50445 120.971 8.39227 120.843 8.24686C120.717 8.10144 120.615 7.92833 120.54 7.72751C120.464 7.5267 120.426 7.30512 120.426 7.06276C120.426 6.82039 120.463 6.59881 120.534 6.398C120.607 6.19718 120.706 6.02545 120.833 5.88281C120.96 5.74155 121.109 5.63075 121.28 5.55043C121.452 5.47149 121.637 5.43132 121.836 5.43132C122.069 5.43132 122.282 5.48534 122.474 5.59197C122.666 5.7 122.821 5.85372 122.937 6.05454L124.284 5.63906C124.078 5.22359 123.768 4.88705 123.353 4.63084C122.939 4.37602 122.437 4.24722 121.847 4.24722C121.407 4.24722 121.013 4.32339 120.663 4.47573C120.314 4.62807 120.015 4.83304 119.768 5.08925C119.521 5.34546 119.333 5.64322 119.203 5.98252C119.073 6.32183 119.007 6.6819 119.007 7.06276C119.007 7.43668 119.074 7.79538 119.208 8.13745ZM125.437 11.9557C125.554 12.0318 125.673 12.0831 125.797 12.1108C125.92 12.1385 126.061 12.1523 126.219 12.1523C126.651 12.1523 127.016 12.0249 127.315 11.7687C127.612 11.5125 127.865 11.0859 128.07 10.4904L130.189 4.34001H128.893L127.597 8.57924L126.137 4.34001H124.716L126.846 9.78411C126.75 10.2204 126.64 10.5237 126.517 10.6926C126.393 10.863 126.246 10.9474 126.075 10.9474C125.979 10.9474 125.877 10.9336 125.771 10.9059C125.665 10.8782 125.554 10.8297 125.437 10.7605V11.9557ZM130.118 11.3421H131.3V9.78411H134.901V11.3421H136.125V8.57924H135.405V4.34001H131.629L131.444 6.02407C131.389 6.51571 131.337 6.92011 131.285 7.23864C131.234 7.55717 131.168 7.81199 131.09 8.00311C131.011 8.19285 130.917 8.33134 130.812 8.41859C130.705 8.50445 130.57 8.55846 130.406 8.57924H130.118V11.3421ZM132.102 8.57924C132.253 8.3438 132.379 8.0502 132.478 7.69566C132.578 7.34251 132.662 6.88549 132.73 6.3246L132.833 5.50473H134.037V8.57924H132.102ZM139.838 9.6387C140.181 9.47251 140.473 9.23015 140.713 8.91162L140.744 9.21214C140.778 9.40742 140.866 9.56253 141.007 9.68025C141.147 9.79796 141.347 9.85751 141.609 9.85751C141.78 9.85751 141.982 9.83259 142.215 9.78411V8.60001C142.099 8.59309 142.015 8.55846 141.963 8.49614C141.912 8.43382 141.886 8.32995 141.886 8.18454V6.49079C141.886 5.7637 141.672 5.20835 141.243 4.82335C140.815 4.43973 140.213 4.24722 139.438 4.24722C138.636 4.24722 137.888 4.47989 137.194 4.94245L137.617 5.82603C137.905 5.62521 138.186 5.47287 138.46 5.369C138.734 5.26513 139.016 5.21389 139.304 5.21389C139.701 5.21389 140.002 5.31084 140.205 5.50473C140.406 5.69861 140.508 5.9756 140.508 6.33567V6.64728C140.329 6.57111 140.125 6.51156 139.896 6.47001C139.666 6.42846 139.431 6.40769 139.191 6.40769C138.855 6.40769 138.547 6.45062 138.265 6.53787C137.983 6.62512 137.742 6.74422 137.54 6.89657C137.337 7.04891 137.179 7.2331 137.067 7.45192C136.953 7.67073 136.897 7.90755 136.897 8.16376C136.897 8.41305 136.943 8.64156 137.035 8.8493C137.129 9.05703 137.257 9.23846 137.422 9.39495C137.587 9.55006 137.781 9.67194 138.008 9.7578C138.234 9.84505 138.478 9.88798 138.739 9.88798C139.129 9.88798 139.496 9.80489 139.838 9.6387ZM138.471 8.63602C138.292 8.48091 138.204 8.28425 138.204 8.0502C138.204 7.79953 138.316 7.59456 138.542 7.43114C138.769 7.26911 139.061 7.1874 139.417 7.1874C139.596 7.1874 139.781 7.20679 139.973 7.24418C140.165 7.28296 140.343 7.33281 140.508 7.39513V8.01835C140.508 8.16376 140.432 8.29533 140.281 8.41305C140.165 8.55154 140.002 8.66233 139.793 8.74543C139.583 8.82852 139.363 8.87007 139.129 8.87007C138.869 8.87007 138.649 8.79251 138.471 8.63602ZM147.595 9.67055C147.883 9.52375 148.131 9.32432 148.341 9.06673C148.551 8.8119 148.713 8.50999 148.829 8.16376C148.946 7.81753 149.005 7.44638 149.005 7.05168C149.005 6.67082 148.941 6.30936 148.814 5.96729C148.687 5.62383 148.513 5.32607 148.291 5.07263C148.067 4.82058 147.801 4.61976 147.492 4.47019C147.184 4.32201 146.848 4.24722 146.484 4.24722C146.073 4.24722 145.71 4.33863 145.394 4.52282C145.079 4.70563 144.821 4.95768 144.622 5.27621V4.34001H143.419V11.9972H144.798V8.82852C144.976 9.15398 145.223 9.41157 145.538 9.60269C145.854 9.79242 146.224 9.88798 146.649 9.88798C146.992 9.88798 147.307 9.81597 147.595 9.67055ZM145.363 8.39781C145.109 8.19285 144.921 7.93525 144.798 7.62365V6.34537C144.846 6.2138 144.915 6.09331 145.009 5.98252C145.101 5.87173 145.205 5.7734 145.321 5.69169C145.438 5.60859 145.566 5.5435 145.703 5.49919C145.84 5.45348 145.973 5.43132 146.103 5.43132C146.316 5.43132 146.513 5.47287 146.696 5.55597C146.877 5.63906 147.034 5.75401 147.169 5.89943C147.302 6.04484 147.406 6.21519 147.483 6.41323C147.558 6.60989 147.595 6.82316 147.595 7.05168C147.595 7.26634 147.561 7.47407 147.492 7.67489C147.424 7.87709 147.328 8.05297 147.204 8.20531C147.081 8.35765 146.931 8.47952 146.757 8.56954C146.582 8.65956 146.392 8.70388 146.187 8.70388C145.891 8.70388 145.616 8.6014 145.363 8.39781ZM149.998 8.13745C150.131 8.48091 150.322 8.78143 150.568 9.0418C150.815 9.30078 151.114 9.50713 151.464 9.65947C151.814 9.81181 152.207 9.88798 152.646 9.88798C153.243 9.88798 153.754 9.75642 154.179 9.49328C154.605 9.23015 154.909 8.89084 155.095 8.47537L153.747 8.05989C153.665 8.23993 153.52 8.39227 153.31 8.51692C153.101 8.64156 152.872 8.70388 152.626 8.70388C152.434 8.70388 152.253 8.66372 152.081 8.58478C151.91 8.50445 151.76 8.39227 151.633 8.24686C151.506 8.10144 151.405 7.92833 151.33 7.72751C151.254 7.5267 151.217 7.30512 151.217 7.06276C151.217 6.82039 151.253 6.59881 151.324 6.398C151.397 6.19718 151.496 6.02545 151.623 5.88281C151.749 5.74155 151.899 5.63075 152.07 5.55043C152.242 5.47149 152.427 5.43132 152.626 5.43132C152.859 5.43132 153.071 5.48534 153.263 5.59197C153.455 5.7 153.61 5.85372 153.727 6.05454L155.075 5.63906C154.869 5.22359 154.558 4.88705 154.144 4.63084C153.728 4.37602 153.226 4.24722 152.637 4.24722C152.198 4.24722 151.803 4.32339 151.453 4.47573C151.103 4.62807 150.806 4.83304 150.559 5.08925C150.311 5.34546 150.123 5.64322 149.992 5.98252C149.862 6.32183 149.796 6.6819 149.796 7.06276C149.796 7.43668 149.864 7.79538 149.998 8.13745ZM158.748 5.54627H160.423V4.34001H155.692V5.54627H157.379V9.78411H158.748V5.54627ZM161.463 4.34001V9.78411H164.292C164.896 9.78411 165.369 9.66363 165.712 9.41988C166.054 9.17891 166.226 8.80775 166.226 8.30918C166.226 7.93525 166.135 7.63888 165.953 7.42145C165.772 7.20263 165.522 7.04891 165.207 6.95889C165.488 6.84117 165.691 6.66251 165.814 6.42292C165.938 6.18472 166 5.9479 166 5.71246C166 5.5255 165.967 5.34823 165.902 5.18204C165.836 5.01585 165.743 4.87043 165.624 4.74579C165.505 4.62115 165.362 4.52282 165.197 4.44942C165.033 4.3774 164.85 4.34001 164.651 4.34001H161.463ZM162.83 6.61543V5.34823H164.045C164.243 5.34823 164.392 5.40917 164.492 5.52965C164.591 5.65153 164.642 5.79833 164.642 5.97144C164.642 6.17918 164.583 6.33844 164.466 6.44924C164.35 6.56003 164.195 6.61543 164.004 6.61543H162.83ZM162.83 8.77728V7.4256H164.199C164.398 7.4256 164.555 7.49069 164.672 7.61811C164.789 7.7469 164.848 7.90755 164.848 8.10144C164.848 8.28841 164.787 8.44767 164.667 8.57924C164.547 8.7108 164.387 8.77728 164.189 8.77728H162.83ZM171.426 9.48774C171.861 9.22184 172.178 8.88115 172.377 8.46567L171.195 8.13191C171.105 8.3535 170.938 8.53215 170.695 8.66787C170.453 8.80221 170.193 8.87007 169.919 8.87007C169.741 8.87007 169.569 8.8396 169.405 8.77728C169.24 8.71496 169.092 8.62355 168.962 8.50584C168.832 8.38812 168.726 8.24686 168.644 8.08067C168.561 7.91448 168.509 7.72336 168.489 7.5087H172.655C172.669 7.4533 172.677 7.38406 172.681 7.30096C172.684 7.21787 172.687 7.132 172.687 7.04198C172.687 6.67498 172.622 6.32183 172.496 5.98252C172.368 5.64322 172.183 5.34546 171.941 5.08925C171.696 4.83304 171.402 4.62807 171.056 4.47573C170.709 4.32339 170.317 4.24722 169.878 4.24722C169.439 4.24722 169.043 4.32339 168.689 4.47573C168.336 4.62807 168.036 4.83443 167.789 5.09341C167.542 5.35377 167.353 5.6543 167.223 5.99776C167.093 6.33983 167.028 6.70545 167.028 7.09322C167.028 7.46715 167.095 7.82446 167.228 8.16376C167.363 8.50307 167.552 8.80082 167.8 9.05703C168.046 9.31324 168.345 9.51544 168.694 9.66501C169.044 9.8132 169.435 9.88798 169.867 9.88798C170.47 9.88798 170.99 9.75503 171.426 9.48774ZM168.468 6.60573C168.482 6.40492 168.528 6.22073 168.607 6.05454C168.686 5.88835 168.788 5.74709 168.91 5.62937C169.035 5.51165 169.176 5.41886 169.338 5.35377C169.498 5.28729 169.672 5.25406 169.857 5.25406C170.235 5.25406 170.555 5.37731 170.819 5.62383C171.083 5.86896 171.232 6.19718 171.266 6.60573H168.468ZM175.124 4.34001H173.756V9.78411H175.124V7.5821H177.263V9.78411H178.632V4.34001H177.263V6.398H175.124V4.34001ZM181.492 4.34001H180.124V9.78411H181.492V7.5821H183.632V9.78411H184.999V4.34001H183.632V6.398H181.492V4.34001ZM186.491 9.78411H188.816C189.105 9.78411 189.37 9.74395 189.614 9.66501C189.857 9.58469 190.069 9.46558 190.252 9.30632C190.433 9.14705 190.575 8.95178 190.678 8.71911C190.781 8.48783 190.833 8.21916 190.833 7.91448C190.833 7.61672 190.78 7.3522 190.673 7.11954C190.567 6.88826 190.422 6.69437 190.237 6.53787C190.051 6.38276 189.833 6.26504 189.582 6.18472C189.333 6.10578 189.06 6.06562 188.765 6.06562H187.86V4.34001H186.491V9.78411ZM191.419 9.78411H192.778V4.34001H191.419V9.78411ZM187.86 8.6928V7.15554H188.672C188.891 7.15554 189.074 7.22341 189.218 7.35913C189.362 7.49346 189.433 7.68597 189.433 7.93525C189.433 8.18454 189.366 8.37288 189.227 8.50168C189.09 8.62909 188.905 8.6928 188.672 8.6928H187.86ZM197.797 2.20032C197.756 2.71274 197.441 2.96895 196.851 2.96895C196.556 2.96895 196.328 2.90662 196.167 2.78198C196.006 2.65734 195.921 2.46345 195.914 2.20032H195.153C195.167 2.63657 195.329 2.97864 195.637 3.22377C195.946 3.47028 196.35 3.59216 196.851 3.59216C197.352 3.59216 197.756 3.47028 198.065 3.22377C198.373 2.97864 198.535 2.63657 198.549 2.20032H197.797ZM195.647 4.34001H194.28V9.78411H195.329L197.849 6.41877V9.78411H199.217V4.34001H198.199L195.647 7.79953V4.34001Z" fill="#231F20"/>
<path d="M26.6781 0V31.3808L26.6713 31.6107L26.6521 31.8447L26.6178 32.0719L26.5712 32.2921L26.5122 32.5054L26.4409 32.7117L26.3586 32.9097L26.264 33.1009L26.1597 33.2837L26.0473 33.4596L25.9252 33.6257L25.7949 33.7864L25.6578 33.9387L25.5152 34.0855L25.3657 34.224L25.2107 34.357L25.0503 34.4844L24.8857 34.6063L24.717 34.724L24.5456 34.8362L24.37 34.9456L24.1918 35.0508L24.0107 35.1519L23.8283 35.2503L23.6432 35.3458L23.4567 35.4386L23.2702 35.53L23.0823 35.62L22.7038 35.7945L22.5145 35.8804L22.3225 35.9676L22.0345 36.0909L21.7452 36.2058L21.4585 36.3097L21.1733 36.4039L20.8908 36.4898L20.611 36.5687L20.334 36.6435L20.0583 36.7113L19.7854 36.7778L19.2478 36.9025L18.9831 36.9648L18.7198 37.0271L18.4579 37.0922L18.1973 37.1587L17.9395 37.2307L17.6817 37.3069L17.4266 37.39L17.1701 37.48L16.915 37.5783L16.66 37.6849L16.4035 37.8013L16.1484 37.9301L15.8906 38.0699L15.6314 38.2237L15.3694 38.3926L15.1061 38.5782L14.8401 38.779L14.5713 38.9992L14.2997 39.2388L14.0255 39.5006L13.3288 40.2069L12.5772 39.5296L12.2742 39.2707L11.9779 39.0325L11.6872 38.8136L11.4033 38.6128L11.1263 38.4273L10.8534 38.2583L10.586 38.1046L10.3226 37.9633L10.0634 37.8345L9.80699 37.7154L9.55465 37.6088L9.30368 37.5091L9.05408 37.4176L8.80448 37.3332L8.55763 37.2556L8.3094 37.1822L8.06118 37.113L7.81158 37.0451L7.56198 36.98L7.30964 36.9163L7.05456 36.8526L6.7981 36.7875L6.54028 36.7197L6.27834 36.649L6.01228 36.5728L5.74486 36.4911L5.47332 36.4039L5.19766 36.3083L4.91927 36.2045L4.63675 36.0895L4.35424 35.9663L4.16224 35.879L3.97436 35.7931L3.78511 35.7059L3.40934 35.5286L3.22145 35.4372L3.03494 35.343L2.85117 35.2475L2.66877 35.1492L2.48775 35.0467L2.30946 34.9428L2.13529 34.8334L1.9625 34.7212L1.79518 34.6049L1.63061 34.483L1.47016 34.3556L1.31519 34.2226L1.1657 34.0828L1.0217 33.9374L0.884563 33.785L0.754278 33.6257L0.632222 33.4582L0.518395 33.2837L0.415539 33.1009L0.320911 32.9097L0.238626 32.7117L0.167313 32.5054L0.10697 32.2921L0.0603423 32.0719L0.0274283 31.8447L0.00685708 31.6107L0 31.3808V0H26.6781Z" fill="#FACF10"/>
<path d="M26.0642 0.621826V31.3711C26.0642 33.5856 24.0784 34.4955 22.0761 35.3984C19.1523 36.7155 16.4451 36.0577 13.3032 39.3524C9.82389 36.1297 7.50346 36.7155 4.60429 35.3984C2.60339 34.4899 0.616211 33.5856 0.616211 31.3711V0.621826H26.0642Z" fill="#216126"/>
<path d="M15.4346 2.82324L16.8896 4.9477C16.8896 4.9477 15.6334 5.16929 15.7034 5.21915C15.7733 5.27039 16.8403 5.49059 16.8403 5.49059C16.8403 5.49059 15.5141 7.26328 15.6142 7.23281C15.7143 7.20235 17.408 5.67201 17.408 5.67201L18.9427 7.00153L17.947 5.43104L18.9728 5.17898L17.947 4.9477L18.9934 3.41737L17.6179 4.69565L17.4176 3.70959L17.1996 4.48514L15.4346 2.82324Z" fill="#FACF10"/>
<path d="M5.54745 13.379C5.31431 13.4468 5.07568 13.4953 4.83843 13.5465L4.82197 13.2751L4.38175 13.4496C4.79591 12.825 5.08528 12.2336 5.81076 11.983L5.23614 10.9651C5.80665 11.1492 6.61852 11.2614 6.90789 11.8999L6.96001 11.911V11.9068C6.91612 11.3625 6.83795 11.0662 6.93806 10.4942C7.37554 10.8224 7.76228 11.1035 7.97485 11.6229C8.7689 11.4401 9.09667 10.8653 9.96615 11.3778C9.98946 11.4982 10.0128 11.6187 10.0004 11.742C10.2404 11.7641 10.4187 11.8099 10.6546 11.8846L10.5312 12.296C10.4928 12.5106 10.4928 12.6173 10.6491 12.7696C10.8672 12.9552 11.0893 13.1283 11.2374 13.3776C10.8507 12.1035 12.159 10.4139 12.5238 9.24776C12.8489 9.27546 13.2918 7.13161 14.3711 6.87955C14.293 7.93347 14.1599 8.98324 14.0982 10.0385C13.935 10.4416 13.7869 10.8501 13.6388 11.2587L13.6566 11.2268C13.9501 10.713 14.223 10.1992 14.5275 9.68955L14.6578 10.4249C14.6866 10.6825 14.6194 10.9318 14.6756 11.1853C14.6509 11.3584 14.618 11.5273 14.581 11.6963C14.7867 11.6187 14.9334 11.5052 15.1199 11.3778L15.2283 11.8265C15.2214 11.9262 15.1501 11.994 15.1501 12.0799C15.1501 12.109 15.1899 12.1492 15.1995 12.181C15.1611 12.2793 15.1227 12.3763 15.0747 12.4718C15.3284 12.4455 15.5835 12.3777 15.8331 12.325L15.759 12.7557C16.3048 12.0702 17.3937 11.1354 17.62 10.2546H17.9642C18.2564 9.05249 19.481 8.34202 19.8595 7.14961C20.0035 7.05821 20.0625 6.93772 20.1887 6.82416L20.6426 6.68982C20.5727 7.83791 20.6728 8.92369 20.0556 9.95822C20.2874 9.8682 20.4918 9.91944 20.7372 9.94437C20.4273 10.6798 20.2024 11.4442 19.8925 12.1796C20.2312 11.9483 20.4355 11.8652 20.8497 11.7849V12.71C20.6001 13.2917 20.3313 13.8623 19.9638 14.3775L19.9418 14.4066C20.2682 14.2445 20.5123 14.221 20.8922 14.1711C20.6289 14.5991 20.334 15.1724 20.0296 15.5768C19.5619 15.6225 19.1642 16.1252 18.8776 16.4258L18.868 16.4369L18.8762 16.4341C19.2451 16.3094 19.5674 16.0768 19.9034 15.8829C19.6497 16.3593 19.5331 16.7 19.3425 17.1487C18.9352 17.5129 18.5457 17.8827 18.0808 18.1735L18.0397 18.1985C18.5018 18.2608 18.9229 18.3702 19.3233 18.6209L19.4001 18.6721L19.4742 18.7275L19.5482 18.7857L19.588 18.8189C20.5713 18.2456 22.0511 17.8758 22.793 18.9228C23.0522 19.3632 23.033 19.8341 22.8917 20.3063C22.7793 20.6442 22.5612 21.0015 22.4927 21.3436C22.3007 22.3311 22.2636 23.2493 22.5791 24.2201C24.1356 24.8682 24.1068 27.6311 24.2275 28.9662C23.7969 28.5355 23.3608 28.1089 22.9329 27.6754C22.7944 26.9207 22.5612 25.9429 21.9839 25.4236C22.0346 25.7269 22.0881 26.0274 22.1429 26.3307H21.5615C21.2241 26.0634 21.0252 25.8792 20.8031 25.4734C20.6796 25.6659 20.5562 25.8598 20.4342 26.0537C19.9843 25.0732 19.7992 24.2686 19.9404 23.1274L19.9418 23.1121L19.9377 23.1191C19.4344 23.8254 18.8077 24.4458 18.2413 25.1009C17.871 25.6105 18.185 26.3612 18.1933 26.9221C18.0301 27.0536 17.8669 27.1838 17.6996 27.3112C17.2072 27.6768 16.6888 28.0064 16.2129 28.3956C15.567 28.9482 15.2461 29.5312 14.9787 30.3386H14.2984L14.3012 30.3636C14.33 30.5948 14.3149 30.7763 14.282 31.0117C13.7965 31.1197 13.3234 31.2638 12.8447 31.3981C12.9161 30.876 12.9654 30.3511 13.0532 29.8304C13.2809 29.7805 13.3055 29.7057 13.4989 29.6032C13.6964 29.1476 13.8953 28.6934 14.1051 28.2446C14.6194 27.807 15.1652 27.5647 15.46 27.2087C15.6603 26.965 15.6973 26.688 15.7165 26.1811C15.3256 25.49 14.9266 24.7699 14.7922 23.975L14.7908 23.9653C14.5768 24.1564 14.3259 24.3226 14.1366 24.54L14.1352 24.5442L14.127 24.6342C14.1462 25.0413 14.2751 25.2518 14.1791 25.695L13.9268 25.803C13.0847 26.2324 12.5046 26.8708 11.9273 27.5854C11.5337 28.0743 11.1415 28.6366 10.6683 29.0382C10.6656 29.3318 10.6519 29.5548 10.7026 29.8498C10.1088 30.0132 9.59038 30.3566 9.00204 30.5588C9.01576 29.811 9.21735 29.2293 9.28593 28.5272C9.51907 28.415 9.93186 28.2474 9.99083 27.994C10.3762 26.5412 11.7147 26.1811 12.2208 25.5136C12.1563 24.8945 11.5131 24.1024 11.8806 23.2493C11.6214 22.8753 10.778 22.8185 10.7053 23.4113C10.3803 23.734 10.1773 24.2893 9.62741 23.8462C9.57667 23.806 8.44936 23.0069 8.46856 23.1385C8.53988 23.6786 8.46856 24.1882 8.20388 24.6688L8.19839 24.6785L8.19977 24.6813C8.23679 24.756 8.33279 25.0219 8.39999 25.0358C8.67153 25.0926 8.92936 25.1466 9.19267 25.2338C9.20501 25.4665 9.19816 25.6216 9.1337 25.8418C8.97187 26.3418 8.91564 26.4761 8.96913 27.0315C8.41508 26.839 8.05577 26.4567 7.5648 26.1299C7.36594 25.9928 7.2096 25.8751 7.16572 25.623C7.15063 25.3696 7.22195 25.0663 7.18218 24.8211C7.1232 24.4638 6.94629 24.1688 6.92572 23.8226C6.93258 23.4778 7.06698 23.1385 7.14789 22.8061C6.72138 22.8379 6.30584 23.0429 5.87247 22.9016C5.54333 22.7645 5.23614 22.5762 4.91797 22.4128C4.84117 22.8338 4.68757 23.2631 4.66974 23.691C4.64231 24.1453 4.7534 24.5663 4.76986 25.0136C4.76711 25.1618 5.44048 25.1784 5.49396 25.1812C5.43362 25.5898 5.48162 26.2005 5.32254 26.5772L5.04414 26.929C4.86586 26.7337 4.6958 26.4775 4.4942 26.267C4.10883 25.864 3.70152 25.4817 3.57261 24.9749C3.4917 24.8987 3.41078 24.8267 3.33398 24.745C3.48758 23.4888 3.85512 22.2854 3.95386 21.014C3.98403 20.5431 4.2062 20.514 4.52026 20.2606C4.95637 20.431 5.40619 20.5237 5.84779 20.6761C6.06584 20.2052 5.63659 19.8091 5.53236 19.384C5.44596 18.8992 5.55842 18.3231 5.79567 17.9007C6.31956 16.9687 7.30835 16.2901 7.11909 15.5034C7.06012 15.5173 6.87498 15.5408 6.84892 15.5921C6.68435 15.9452 6.56092 16.3136 6.39224 16.6654H5.79156C5.67088 16.592 5.52002 16.4798 5.58722 16.3164C5.40071 16.3538 5.21831 16.3565 5.02905 16.3607C4.35295 15.1807 5.18402 14.5063 5.54745 13.379Z" fill="#231F20"/>
<path d="M10.4598 23.2888C10.1677 23.5547 10.1745 23.9535 9.83855 23.6835C9.29136 23.2403 8.88816 22.9065 8.14211 22.7902C8.29708 23.5034 8.3108 24.0283 7.90897 24.6543C7.96246 24.826 8.1284 25.0698 8.19422 25.254C8.32588 25.2941 8.80039 25.3717 8.94439 25.4257C8.98416 25.6902 8.61662 26.3397 8.66873 26.6056C8.31765 26.4547 7.98714 26.1001 7.65114 25.873C7.322 25.6514 7.43857 25.578 7.44817 25.1709C7.45777 24.8052 7.42349 24.531 7.26029 24.1516C7.09298 23.7624 7.24109 23.5076 7.34258 23.0963C7.69229 21.6878 7.69777 21.5922 7.73069 20.9095C8.05434 20.8929 8.36017 20.7987 8.56314 20.8915C9.00885 21.0978 9.2077 21.6116 9.77547 21.6116C9.27901 21.3845 9.07467 20.9095 8.74142 20.7751C8.42874 20.6477 8.0708 20.6366 7.51263 20.7073C7.32886 21.3831 7.57297 21.9648 7.19858 22.5437C6.89687 22.5437 6.56361 22.678 6.2619 22.678C6.01367 22.8539 5.04683 22.0603 4.69849 22.077C4.69849 22.4343 4.41186 23.3068 4.41186 23.6765C4.35426 24.3745 4.58329 24.8149 4.48729 25.2733C4.65872 25.2733 5.01391 25.4285 5.19768 25.4285C5.1058 25.9838 5.21962 26.3508 5.03586 26.535C4.7314 26.1888 3.92775 25.4769 3.82078 24.9008C3.80021 24.79 3.67267 24.7346 3.60547 24.6543C3.71792 23.6599 4.12386 22.5478 4.22123 20.8776C4.23221 20.6907 4.45437 20.6657 4.56546 20.5563C4.87951 20.6893 5.64614 20.8513 5.96019 20.9967C6.62944 19.9913 5.51859 19.8569 5.80659 18.6922C6.22624 17.0373 7.67034 16.8544 7.36452 15.3906C8.38622 14.9668 8.7949 15.115 8.99102 14.0832C8.86073 14.0832 8.84565 14.0998 8.72633 14.0998C8.60976 15.2258 7.71834 15.0194 6.68293 15.3504C6.49916 15.6814 6.40178 16.0609 6.23036 16.4043H5.86419C5.77231 16.3517 5.96019 16.421 6.14396 15.7327C5.90808 15.957 5.63379 16.0955 5.17574 16.0955C5.09208 15.9556 4.92751 15.5748 5.09071 15.0028C5.26214 14.4018 5.79562 13.773 5.85459 13.1609C5.87105 12.985 6.32499 12.9047 6.67333 12.7385C6.78441 12.7163 6.83927 12.7689 6.91607 12.78C7.12863 12.8077 7.13001 12.5432 7.17663 12.5307C7.17663 12.4809 7.01892 12.69 6.95447 12.6817C6.84749 12.6665 6.7035 12.6748 6.7035 12.6014C6.57184 12.6401 5.98487 13.0432 5.07837 13.226C5.02625 13.147 5.76133 12.6014 5.05368 12.9019C5.63653 11.9629 6.77207 12.0986 6.96544 12.1859C7.06281 12.2302 7.09572 12.1125 7.20818 12.0585C7.26578 11.8424 7.06692 11.1403 7.11904 10.9547C7.51263 11.2317 7.79514 11.7053 7.78417 11.9491C10.8369 12.834 9.6685 16.3254 10.1677 16.288C10.2555 16.036 10.2555 15.5222 10.2555 15.2826C10.3076 15.2826 10.3227 15.295 10.3885 15.295C10.7835 16.3199 10.9617 17.173 10.5764 18.3848C10.8424 18.3349 10.9837 17.7062 11.0756 17.468C11.2072 17.5081 11.2388 17.6106 11.3828 17.6632C11.5158 17.4486 11.1345 17.425 10.9453 16.6218C10.8891 16.3822 10.9933 15.6149 11.247 15.8282C11.5144 16.054 11.0001 13.7799 11.6639 13.6484C10.9069 12.7108 12.2618 11.0336 12.7199 9.48531C12.8378 9.48531 12.7514 9.38144 12.8817 9.38144C12.9832 9.01167 13.6525 7.39408 14.0831 7.26944C14.0186 8.18349 13.8966 9.05183 13.8431 9.97834C13.5949 10.5877 13.2122 11.6998 12.9764 12.3078C13.6058 12.1222 14.0543 10.9727 14.3944 10.416C14.4465 10.6542 14.3478 10.9436 14.4136 11.1957C14.3738 11.5004 14.271 11.83 14.2449 12.1347C14.3889 12.0155 14.8003 11.9214 14.9567 11.8023C15.0102 11.9214 14.8593 12.0543 14.9251 12.1734C14.8593 12.3576 14.7427 12.5044 14.6906 12.69C14.8881 12.7911 15.2639 12.7122 15.5135 12.6595C15.3818 13.5985 14.2394 14.6497 13.481 15.0734C13.5194 14.928 13.4577 14.5915 13.5098 14.4585C13.3891 14.3561 13.2205 14.2508 13.0627 14.3921C12.9517 14.4918 12.9489 13.7827 13.0998 13.6608C12.9818 13.6608 12.842 13.773 12.724 13.773C12.4744 14.0112 12.3482 14.1359 12.2015 14.4765C12.3812 14.399 12.8324 14.1095 12.8049 14.2314C12.6719 14.8463 12.8241 14.687 13.0696 14.6497C13.2808 14.6164 13.1629 14.7978 13.252 15.2881C12.6404 15.7645 12.089 16.6481 11.8367 17.3599C11.6858 17.7865 11.5391 18.177 11.2827 18.4346C12.3839 18.5676 12.3441 17.0982 12.4237 16.3697C13.3014 15.6025 14.1791 14.8339 15.0582 14.0666C17.705 10.6653 17.7283 10.8855 17.8202 10.5143H18.174C18.3564 9.28311 19.6839 8.66682 20.0638 7.35669C20.1818 7.35669 20.2311 7.0437 20.3628 7.0437C20.2709 8.52556 20.3628 8.52556 20.0871 9.4396C19.7991 9.80938 19.5098 10.4603 19.2218 10.8439C19.5495 10.8965 19.9953 10.0753 20.3628 10.1681C20.035 10.927 19.7594 12.0793 19.2972 12.7592C19.5825 12.8285 20.2819 12.1222 20.5918 12.1V12.6554C20.1859 13.6082 19.8513 14.2245 19.1299 14.9516C19.4577 15.0042 20.0529 14.6109 20.4423 14.4613C20.0227 14.8712 20.1722 14.9751 19.8924 15.3269C19.4727 15.3269 18.1932 16.7229 18.2275 16.8517C18.3578 16.8517 19.0613 16.6827 19.2519 16.5581C19.1861 16.6509 19.1806 16.8988 19.1285 16.9915C18.211 17.8114 18.3564 17.7076 17.2689 18.3557C17.2689 18.4762 17.1921 18.5371 17.1921 18.6562C17.3759 18.6562 17.4828 18.695 17.6666 18.695C17.6666 18.8141 17.8613 18.9207 17.8613 19.0537C16.3061 19.7877 14.8511 19.3016 14.6714 19.9456C14.1338 19.9456 13.5153 19.4401 12.6102 19.4401C13.5153 19.7434 13.9501 20.3029 14.895 20.2627C14.9334 20.1173 14.9868 19.9844 15.039 19.8528C16.1073 19.7309 17.2648 19.6478 18.222 19.1188C18.2741 18.7075 17.8682 18.8349 17.7228 18.4249C19.0887 18.551 19.3617 18.8681 20.3902 20.0273C20.4423 22.6877 19.7566 22.9384 18.0396 24.9368C17.5939 25.5185 17.934 26.0697 17.934 26.7968C16.5311 27.949 15.3558 28.2772 14.7921 30.0776H14.0584C13.9926 30.3809 14.1037 30.4779 14.0515 30.795C13.8019 30.849 13.3891 30.9737 13.1546 31.0401C13.2067 30.6704 13.2136 30.4183 13.2781 30.0471C13.396 30.0471 13.5729 29.8103 13.6909 29.8103C13.9144 29.2938 14.0776 28.9087 14.3135 28.406C15.5203 27.3604 15.9318 27.6873 15.9784 26.1154C14.8634 24.1571 14.4451 23.0672 16.3061 21.5853C15.5011 21.6726 15.1596 22.2889 14.9238 23.0298C14.5069 23.1669 13.0819 23.3635 12.0973 23.1073C11.7873 22.5312 10.4598 22.5977 10.4598 23.2888ZM5.78739 11.4173L6.03699 11.8549L6.17962 12.064C6.18922 12.0779 6.3099 12.0557 6.43058 12.0543C6.58693 12.0529 6.68841 12.0709 6.67607 12.0114C6.64315 11.866 6.24956 11.5655 6.24956 11.5655L5.78739 11.4173ZM15.1679 18.0856H15.534C15.5875 17.5566 15.3311 16.9431 15.7494 16.5858C15.567 16.4002 15.567 16.4002 15.1473 16.439V15.8836C14.6577 16.1232 14.3423 16.2202 13.8966 16.5234C14.1983 16.4847 14.4986 16.4584 14.8003 16.4307C14.8401 16.5899 14.8799 16.7617 14.932 16.9334C15.0623 16.8808 15.2063 16.842 15.3516 16.8018C15.2858 17.2256 15.22 17.6494 15.1679 18.0856ZM17.5404 16.2465C18.0698 15.8005 17.753 15.1801 17.8024 14.4973H17.4485C17.4623 14.14 17.4746 13.7827 17.4883 13.4392C17.1084 13.7564 16.8191 13.9821 16.4392 14.3131C16.6751 14.2743 16.9247 14.2466 17.1729 14.2203V14.7771C17.2785 14.8158 17.3827 14.856 17.4869 14.9086C17.5006 15.3463 17.5144 15.7964 17.5404 16.2465ZM7.28909 13.1636C7.28909 13.1636 7.33023 13.1526 7.13823 13.2966C6.94761 13.4406 6.90372 13.4697 6.81458 13.568C6.72544 13.6678 6.64178 13.7204 6.59241 13.7841C6.54441 13.8492 6.4731 13.8907 6.5211 13.8949C6.57047 13.8976 6.65001 13.917 6.65001 13.917C6.65001 13.917 6.65001 13.978 6.70761 14.0832C6.76521 14.1899 6.78852 14.1594 6.85847 14.068C6.92978 13.978 7.02304 13.8976 7.05046 13.8533C7.07652 13.8076 7.05046 13.8533 7.10258 13.683C7.15606 13.5113 7.30692 13.3603 7.31103 13.3188C7.31652 13.2772 7.28909 13.1636 7.28909 13.1636ZM10.1169 15.3255C10.1759 15.2479 10.2939 15.0956 10.3419 15.0319C10.3967 14.9599 10.7752 15.669 10.8328 16.1384C10.8534 16.2991 10.8177 15.2701 11.1345 15.5831C11.258 14.5707 10.8657 14.2453 10.7163 13.6636H11.0838C10.8219 12.9088 9.97569 13.0861 10.3336 12.0543C10.1896 12.0017 9.87832 12.0086 9.74667 11.9685C9.70827 11.823 9.77547 11.6749 9.7357 11.5433C9.12542 11.1195 8.57548 11.7857 8.20794 11.8355C8.84016 12.0142 9.51078 12.6609 9.7837 13.2578C10.4118 14.633 10.0251 14.7826 10.1169 15.3255ZM21.8343 26.0683C21.7685 25.6985 21.7027 25.3274 21.6506 24.9576C22.5941 25.1695 23.0275 26.7275 23.1715 27.5488C23.4073 27.787 23.6569 28.0252 23.9052 28.2758C23.8009 27.125 23.6556 24.8773 22.3705 24.4147C21.9248 23.0506 21.9907 22.5534 22.2649 21.1643C22.3829 20.9122 22.7861 20.0397 22.7559 19.6187C22.6736 18.4845 21.2556 18.1092 19.8183 18.9844C19.9623 19.5924 20.297 19.4872 20.6645 20.0287C20.6645 21.8817 19.6181 23.779 20.4711 25.5129C20.5891 25.3274 20.707 25.1418 20.825 24.9576C21.2309 25.7373 21.2309 25.7373 21.6506 26.0683H21.8343ZM13.9021 24.4133C14.2957 23.9327 14.8922 23.7486 14.8922 23.2375C14.1091 23.4273 13.2479 23.4605 12.1137 23.3691C11.7709 24.2956 12.4484 24.8246 12.4484 25.6196C11.3197 26.7441 10.3885 26.8328 10.1526 28.2745C10.0072 28.3146 9.6589 28.6456 9.52861 28.6996C9.52861 28.8423 9.26667 29.3021 9.26667 30.1967C9.50256 30.1302 10.1595 29.712 10.4091 29.6594C10.3693 29.4738 10.4296 29.0846 10.4036 28.8991C10.8301 28.7453 12.4881 26.0766 13.9555 25.5074C14.0735 25.0698 13.7704 24.8371 13.9021 24.4133Z" fill="white"/>
<path d="M11.2831 34.401H10.3711V34.3124H10.6043V32.9178C10.6043 32.8486 10.596 32.8001 10.5809 32.7696C10.5659 32.7391 10.5302 32.7253 10.4767 32.7253C10.4411 32.7253 10.3876 32.7322 10.319 32.7488L10.2998 32.6477C10.4438 32.6214 10.5741 32.5882 10.6893 32.5466C10.8045 32.5051 10.9252 32.4442 11.0527 32.3638V34.3124H11.2831V34.401ZM11.9784 33.361C11.7892 33.246 11.6932 33.1214 11.6932 32.987C11.6932 32.8915 11.7343 32.7973 11.8138 32.7031C11.8934 32.609 11.988 32.5314 12.0991 32.4705C12.2088 32.4095 12.3021 32.3791 12.3789 32.3791C12.4406 32.3791 12.5229 32.4068 12.6244 32.4622C12.7245 32.5162 12.8136 32.584 12.889 32.6657C12.9631 32.7475 13.0015 32.8278 13.0015 32.9067C13.0015 32.987 12.9741 33.0563 12.9192 33.1145C12.8644 33.1726 12.7807 33.2419 12.6669 33.3208C12.8273 33.4094 12.9398 33.4898 13.0029 33.5618C13.0659 33.6338 13.0975 33.7321 13.0975 33.8595C13.0975 33.9413 13.0467 34.0271 12.948 34.1171C12.8479 34.2072 12.7327 34.2833 12.6038 34.347C12.4735 34.4094 12.3789 34.4412 12.3158 34.4412C12.2513 34.4412 12.1622 34.408 12.0497 34.3415C11.9373 34.275 11.8372 34.1919 11.7521 34.0922C11.6657 33.9925 11.6218 33.8955 11.6218 33.8C11.6218 33.7224 11.6465 33.649 11.6945 33.5784C11.7425 33.5078 11.8372 33.4344 11.9784 33.361ZM12.5681 33.2543C12.6106 33.2391 12.649 33.2142 12.6833 33.1823C12.7176 33.1477 12.7354 33.1089 12.7354 33.0604C12.7354 32.9926 12.6957 32.9233 12.6175 32.8555C12.5393 32.7862 12.4502 32.7281 12.3473 32.6824C12.2472 32.6367 12.1704 32.6131 12.121 32.6131C12.084 32.6131 12.0456 32.6297 12.0072 32.6644C11.9674 32.699 11.9482 32.7378 11.9482 32.7779C11.9482 32.8707 12.0017 32.951 12.1101 33.0217C12.2184 33.0909 12.3706 33.1699 12.5681 33.2543ZM12.6079 34.1961C12.6573 34.1753 12.7012 34.1448 12.7382 34.1047C12.7752 34.0659 12.7944 34.0243 12.7944 33.9786C12.7944 33.9163 12.7738 33.8623 12.7327 33.8125C12.6902 33.764 12.6394 33.7197 12.5764 33.6809C12.5146 33.6421 12.4337 33.5978 12.3364 33.5452C12.1924 33.4676 12.1018 33.4288 12.0662 33.4288C12.0292 33.4288 11.9921 33.4482 11.9537 33.4856C11.9167 33.5244 11.8989 33.5673 11.8989 33.6144C11.8989 33.6961 11.9318 33.7668 11.999 33.8277C12.0662 33.8886 12.1444 33.944 12.2335 33.9939C12.276 34.0188 12.3021 34.0354 12.3117 34.041C12.3199 34.0465 12.3391 34.059 12.3665 34.0756C12.4584 34.1324 12.5393 34.1725 12.6079 34.1961ZM14.6746 32.3638L14.7871 32.4497C14.7404 32.5079 14.6952 32.5743 14.6486 32.6505C14.6019 32.7267 14.5443 32.8333 14.4744 32.9677C14.4058 33.1034 14.3249 33.2723 14.2289 33.4745C14.2097 33.5161 14.1823 33.5715 14.148 33.6421C14.1137 33.7127 14.0822 33.7861 14.052 33.8651C14.0205 33.9413 13.9944 34.0243 13.9711 34.113C13.9491 34.2016 13.9382 34.2819 13.9382 34.3581C13.9382 34.3637 13.9368 34.3761 13.9368 34.3983C13.9354 34.419 13.9341 34.4371 13.9341 34.4523C13.9341 34.5243 13.9409 34.5908 13.9533 34.6517C13.8874 34.6282 13.8285 34.6129 13.775 34.6046C13.7215 34.5977 13.6502 34.5908 13.5638 34.5839C13.5967 34.4218 13.657 34.2335 13.7475 34.0174C13.8367 33.8028 13.9341 33.5909 14.041 33.3859C14.148 33.1809 14.2495 32.9981 14.3441 32.8389H13.7832C13.7256 32.8389 13.6817 32.8402 13.6529 32.843C13.6241 32.8458 13.6008 32.8541 13.5802 32.8666C13.561 32.879 13.5473 32.8984 13.5391 32.9275L13.3896 32.879C13.4198 32.8001 13.4527 32.7004 13.4883 32.5799C13.5171 32.4885 13.5377 32.4289 13.5514 32.3998C13.6625 32.4192 13.7887 32.4303 13.9286 32.4331H14.1741C14.2728 32.4317 14.3523 32.4275 14.414 32.422C14.4744 32.4165 14.5251 32.4095 14.5635 32.3998C14.6033 32.3901 14.6403 32.3791 14.6746 32.3638ZM15.9583 32.3015L16.0488 32.3791C15.9967 32.4303 15.9391 32.4829 15.876 32.5411C15.7676 32.6408 15.673 32.7336 15.5921 32.8209C15.5098 32.9081 15.4399 33.0051 15.3795 33.1117C15.3192 33.2169 15.2904 33.3236 15.2904 33.4288C15.2904 33.5466 15.3178 33.6463 15.3713 33.728C15.4262 33.8111 15.4865 33.8775 15.5551 33.926C15.6236 33.9745 15.7443 34.0534 15.9185 34.1615C15.9967 34.0964 16.0543 34.041 16.0899 33.9953C16.1269 33.9482 16.1448 33.8928 16.1448 33.8305C16.1448 33.7778 16.1269 33.7211 16.0913 33.6587C16.0543 33.5978 16.009 33.541 15.9514 33.487C15.8938 33.4344 15.8348 33.3901 15.7731 33.3582C15.7128 33.325 15.6566 33.3083 15.6058 33.3083C15.5551 33.3083 15.5208 33.3111 15.5002 33.3153L15.4385 33.2696C15.4728 33.2183 15.5359 33.1574 15.625 33.084C15.7155 33.012 15.7841 32.976 15.8321 32.976C15.8856 32.976 15.9569 33.0092 16.046 33.0743C16.1352 33.1408 16.2133 33.2239 16.2792 33.325C16.3464 33.4247 16.3807 33.523 16.3807 33.62C16.3807 33.6989 16.3519 33.7848 16.2956 33.8803C16.2394 33.9745 16.1681 34.0645 16.0844 34.1504C15.9994 34.2362 15.9171 34.3069 15.8376 34.3595C15.758 34.4135 15.6963 34.4412 15.6552 34.4412C15.5839 34.4412 15.4879 34.3983 15.3686 34.311C15.2492 34.2252 15.1436 34.1185 15.0531 33.9925C14.9626 33.8665 14.9174 33.7446 14.9174 33.6283C14.9174 33.5369 14.9379 33.4413 14.9804 33.3444C15.0216 33.246 15.0847 33.1422 15.1711 33.0327C15.2561 32.9233 15.3644 32.8084 15.4947 32.6865C15.625 32.5674 15.78 32.4386 15.9583 32.3015Z" fill="#FACF10"/>
</svg>
